<svg width="112" height="96" viewBox="0 0 112 96" fill="none" xmlns="http://www.w3.org/2000/svg">
<rect x="1.37315" y="62.1301" width="71" height="53" rx="4" transform="rotate(-58.8406 1.37315 62.1301)" fill="#FFF1BE"/>
<rect x="1.37315" y="62.1301" width="71" height="53" rx="4" transform="rotate(-58.8406 1.37315 62.1301)" fill="#FFF1BE"/>
<rect x="1.37315" y="62.1301" width="71" height="53" rx="4" transform="rotate(-58.8406 1.37315 62.1301)" stroke="black" stroke-width="2" stroke-linecap="round" stroke-linejoin="round" stroke-dasharray="19 5"/>
<rect x="1.37315" y="62.1301" width="71" height="53" rx="4" transform="rotate(-58.8406 1.37315 62.1301)" fill="#FFF1BE"/>
<rect x="1.37315" y="62.1301" width="71" height="53" rx="4" transform="rotate(-58.8406 1.37315 62.1301)" fill="#FFF1BE"/>
<rect x="1.37315" y="62.1301" width="71" height="53" rx="4" transform="rotate(-58.8406 1.37315 62.1301)" stroke="black" stroke-width="2" stroke-linecap="round" stroke-linejoin="round" stroke-dasharray="19 5"/>
<path d="M20.1993 57.9055C20.1313 57.8545 20.0985 57.7635 20.0662 57.688C19.9431 57.3999 19.8235 57.1127 19.6936 56.8271C19.3133 55.991 18.7341 55.1618 18.5134 54.2658C18.446 53.9923 18.3873 53.6573 18.4969 53.3863C18.6351 53.0449 19.0237 52.8478 19.346 52.7207C20.5894 52.2302 21.9022 52.0406 23.059 51.3318C24.2697 50.5899 25.2279 49.3579 25.6647 48.0069C26.123 46.5897 26.0223 45.1239 26.3179 43.6834C26.5517 42.5436 27.1226 41.6486 27.9846 40.88C28.9692 40.0021 30.1537 39.3055 30.9411 38.2256C31.2988 37.735 31.5472 37.2046 31.6928 36.6151C31.8545 35.9603 31.8556 35.2982 31.9364 34.6335C32.0017 34.0964 32.0989 33.5629 32.3665 33.086C32.644 32.5913 33.0966 32.2758 33.5883 32.0149C34.6477 31.4527 35.9426 31.1169 36.7034 30.118C37.0478 29.6658 37.2309 29.2294 37.3402 28.6742C37.4505 28.1136 37.4988 27.5433 37.6067 26.9829C37.7719 26.1249 38.2079 25.4198 38.8671 24.8554C39.716 24.1285 40.5504 23.2802 40.7919 22.1489C41.1387 20.5243 40.7857 18.8322 41.1541 17.2005" stroke="black" stroke-linecap="round"/>
<path d="M31.3134 64.0727C30.65 63.6449 30.1919 63.035 29.7455 62.3946C28.9352 61.2321 28.3585 59.8803 28.2953 58.4509C28.2413 57.2277 28.4812 55.9202 29.2225 54.9168C29.9941 53.8723 31.3238 53.3892 32.521 53.041C33.5723 52.7352 34.6929 52.4619 35.478 51.6439C36.391 50.6929 36.5162 49.3424 36.6362 48.0912C36.7995 46.3888 36.7386 44.6379 37.2289 42.9845C37.5889 41.7705 38.1913 40.5843 39.106 39.6963C40.0759 38.7549 41.225 38.0256 42.2491 37.1477C43.2532 36.2867 43.9753 35.1576 44.2971 33.8778C44.5546 32.8535 44.6491 31.7578 45.0719 30.7832C45.478 29.847 46.1345 29.2537 47.0134 28.7603C47.7744 28.3329 48.6008 28.0197 49.2189 27.379C49.7422 26.8367 49.719 26.1704 49.5763 25.4828C49.4067 24.6651 49.1689 23.8564 49.0937 23.022C49.0226 22.2319 49.0116 21.4515 49.0567 20.6604" stroke="black" stroke-linecap="round"/>
<path d="M38.0817 67.017C38.1211 66.9341 38.0794 66.8924 38.047 66.8164C37.9469 66.5816 37.8224 66.3363 37.7589 66.0893C37.6091 65.5066 37.4529 64.5612 37.8838 64.0501C38.0629 63.8376 38.445 63.8509 38.6945 63.8386C39.1863 63.8144 39.676 63.8375 40.1674 63.8644C40.994 63.9098 41.8438 63.9664 42.391 63.2194C43.0962 62.2567 42.7286 60.8414 42.5914 59.7657C42.4398 58.5772 42.0847 56.9521 42.9 55.9143C43.1965 55.5369 43.6674 55.4325 44.1118 55.3286C44.9409 55.1348 45.7986 54.9978 46.5916 54.6779C48.2614 54.0043 49.4219 52.4587 49.8154 50.7296C50.0277 49.7966 50.1044 48.8514 50.15 47.8981C50.1914 47.0316 50.1883 46.138 50.4172 45.2952C50.6142 44.5698 50.9137 43.8442 51.3636 43.2377C51.8051 42.6424 52.3585 42.2398 53.0024 41.8871C53.7849 41.4585 55.1115 41.054 55.2122 39.991C55.2434 39.6614 55.1725 39.3557 55.0844 39.0418C55.0079 38.7695 54.9154 38.4186 55.0728 38.1582C55.2821 37.8121 55.7493 37.6753 56.0993 37.5313C56.8297 37.2309 57.5666 36.927 58.2626 36.5522C59.9536 35.6415 61.5103 34.3344 61.6653 32.2963C61.853 29.8274 61.0204 27.2231 59.7778 25.1134C58.7029 23.2885 57.2105 21.8055 55.4042 20.7133" stroke="black" stroke-linecap="round"/>
<path d="M47.921 71.7755C47.9615 71.8729 47.9755 72.0694 48.0401 72.1452C48.1374 72.2595 48.0069 71.8466 47.9816 71.6987C47.793 70.598 47.4893 69.5193 47.3891 68.4035C47.2663 67.0353 47.4133 65.6325 47.9297 64.3521C48.4536 63.053 49.3505 62.046 50.4765 61.2303C51.5219 60.4731 52.7441 60.0448 53.8584 59.412C54.9753 58.7777 55.8367 57.8744 56.2719 56.6514C56.7823 55.2172 56.8249 53.6306 56.9556 52.1289C57.0568 50.9646 57.2051 49.7555 57.7873 48.7214C58.1686 48.0441 58.8552 47.671 59.5044 47.2882C60.4581 46.7259 61.3373 46.132 62.0337 45.2544C62.5572 44.5948 62.8761 43.8308 63.2721 43.097C63.5677 42.5491 64.0373 42.2472 64.5931 41.9985C65.3233 41.6717 66.0575 41.3231 66.5786 40.6921C67.2998 39.8188 67.5472 38.6092 67.8065 37.5359C68.0863 36.3776 68.2217 35.1786 68.5363 34.0313C68.7395 33.2901 69.0734 32.6338 69.4407 31.965" stroke="black" stroke-linecap="round"/>
<rect x="11.2369" y="58.1431" width="71" height="53" rx="4" transform="rotate(-49.247 11.2369 58.1431)" fill="#EBCBFF" stroke="black" stroke-width="2" stroke-linecap="round" stroke-linejoin="round" stroke-dasharray="19 5"/>
<rect x="11.2369" y="58.1431" width="71" height="53" rx="4" transform="rotate(-49.247 11.2369 58.1431)" fill="#EBCBFF" stroke="black" stroke-width="2" stroke-linecap="round" stroke-linejoin="round" stroke-dasharray="19 5"/>
<path d="M30.5039 57.1152C30.4453 57.0536 30.4281 56.9583 30.4089 56.8786C30.3355 56.5739 30.2654 56.2708 30.1849 55.9676C29.9493 55.0798 29.5164 54.1657 29.448 53.2454C29.4272 52.9645 29.4252 52.6244 29.5784 52.3755C29.7716 52.0618 30.1875 51.9323 30.5265 51.8607C31.8343 51.5843 33.1603 51.6161 34.419 51.11C35.7365 50.5803 36.8866 49.5252 37.5425 48.2659C38.2306 46.9449 38.3756 45.4828 38.9071 44.1117C39.3276 43.0268 40.0397 42.2395 41.0177 41.6253C42.1349 40.9237 43.4189 40.4343 44.3752 39.5007C44.8097 39.0766 45.143 38.5951 45.3848 38.038C45.6534 37.4194 45.7648 36.7667 45.9553 36.1247C46.1092 35.6061 46.2939 35.0962 46.6372 34.6706C46.9933 34.2291 47.4921 33.9934 48.0205 33.818C49.1588 33.4403 50.4915 33.325 51.4082 32.4669C51.8231 32.0784 52.0763 31.6786 52.2766 31.1494C52.4789 30.615 52.6215 30.0607 52.8213 29.5262C53.1272 28.7077 53.6746 28.0852 54.4187 27.6384C55.3769 27.0632 56.3409 26.3658 56.7676 25.2906C57.3803 23.7465 57.3142 22.0192 57.9494 20.4718" stroke="black" stroke-linecap="round"/>
<path d="M40.4346 65.0484C39.8519 64.516 39.5018 63.8383 39.1684 63.1325C38.5631 61.8512 38.2198 60.4221 38.3957 59.0022C38.5463 57.7872 39.0007 56.5379 39.8989 55.672C40.8338 54.7708 42.2254 54.516 43.4639 54.3722C44.5515 54.2459 45.7019 54.1632 46.6124 53.4875C47.6712 52.7019 48.0197 51.3912 48.3465 50.1775C48.7912 48.5261 49.023 46.7895 49.782 45.241C50.3393 44.1039 51.131 43.0347 52.1809 42.3117C53.2941 41.545 54.5486 41.0175 55.7047 40.3224C56.8383 39.6409 57.7385 38.6479 58.269 37.4396C58.6937 36.4726 58.9694 35.408 59.5488 34.5175C60.1052 33.6621 60.8514 33.1865 61.8002 32.8464C62.6219 32.5518 63.4889 32.3807 64.2051 31.852C64.8115 31.4045 64.8996 30.7437 64.8736 30.0419C64.8426 29.2074 64.7429 28.3703 64.8078 27.535C64.8694 26.7442 64.9886 25.9728 65.1649 25.2003" stroke="black" stroke-linecap="round"/>
<path d="M46.6176 69.0795C46.6703 69.0043 46.6361 68.9562 46.6168 68.876C46.5573 68.6277 46.4754 68.3651 46.4539 68.111C46.4034 67.5115 46.4069 66.5533 46.9169 66.1212C47.129 65.9415 47.5035 66.0183 47.7516 66.0477C48.2405 66.1058 48.7195 66.2101 49.1996 66.3187C50.007 66.5012 50.8355 66.6986 51.4995 66.0532C52.3554 65.2215 52.2287 63.7647 52.2727 62.6812C52.3213 61.4841 52.242 59.8225 53.2189 58.9351C53.5742 58.6124 54.0558 58.588 54.5114 58.5596C55.3612 58.5066 56.2297 58.5145 57.0649 58.3312C58.8237 57.9453 60.2255 56.6147 60.9016 54.9755C61.2665 54.0909 61.4996 53.1716 61.7034 52.2393C61.8887 51.3918 62.0346 50.5102 62.4007 49.7174C62.7159 49.0349 63.1321 48.3694 63.6768 47.8463C64.2113 47.3329 64.8241 47.0282 65.5178 46.7878C66.3608 46.4956 67.7362 46.3178 68.0127 45.2864C68.0984 44.9667 68.0794 44.6534 68.0448 44.3292C68.0148 44.048 67.9821 43.6866 68.1807 43.4561C68.4447 43.1497 68.9282 43.0926 69.2973 43.009C70.0675 42.8345 70.8448 42.6577 71.5935 42.4041C73.4126 41.788 75.1654 40.7586 75.6579 38.7748C76.2545 36.3717 75.8675 33.6651 74.9939 31.3778C74.2382 29.3993 73.0139 27.6883 71.4148 26.3104" stroke="black" stroke-linecap="round"/>
<path d="M55.5262 75.4113C55.55 75.5141 55.531 75.7101 55.582 75.7956C55.6589 75.9245 55.5991 75.4957 55.5988 75.3457C55.5963 74.2289 55.4766 73.1146 55.5638 71.9978C55.6707 70.6283 56.0494 69.2696 56.772 68.0932C57.5051 66.8996 58.5573 66.0561 59.8035 65.4395C60.9604 64.8671 62.2369 64.6485 63.4411 64.2102C64.6481 63.771 65.648 63.0238 66.2809 61.8905C67.0232 60.5614 67.3297 59.004 67.7087 57.5451C68.0026 56.4141 68.3504 55.2465 69.0967 54.3239C69.5855 53.7196 70.3248 53.4662 71.0287 53.1969C72.0628 52.8015 73.0287 52.3624 73.8615 51.6132C74.4877 51.0499 74.9294 50.3498 75.4421 49.6923C75.8249 49.2013 76.3383 48.9819 76.9278 48.8293C77.7022 48.6287 78.4842 48.4074 79.1033 47.872C79.9599 47.1312 80.4055 45.9797 80.84 44.9647C81.3089 43.8692 81.6422 42.7095 82.1436 41.6307C82.4675 40.9337 82.9062 40.3422 83.3798 39.744" stroke="black" stroke-linecap="round"/>
<rect x="21.3774" y="49.3288" width="71" height="53" rx="4" transform="rotate(-31.8948 21.3774 49.3288)" fill="#FFCBD4" stroke="black" stroke-width="2" stroke-linecap="round" stroke-linejoin="round" stroke-dasharray="19 5"/>
<rect x="21.3774" y="49.3288" width="71" height="53" rx="4" transform="rotate(-31.8948 21.3774 49.3288)" fill="#FFCBD4" stroke="black" stroke-width="2" stroke-linecap="round" stroke-linejoin="round" stroke-dasharray="19 5"/>
<path d="M40.0741 54.094C40.0366 54.0177 40.0486 53.9216 40.054 53.8397C40.0748 53.5271 40.0984 53.2169 40.112 52.9035C40.1518 51.9858 40.0112 50.9842 40.2205 50.0853C40.2844 49.811 40.3839 49.4858 40.6044 49.2939C40.8823 49.0522 41.3179 49.0526 41.6629 49.0853C42.9936 49.2116 44.2497 49.6373 45.6021 49.5297C47.0176 49.417 48.4301 48.753 49.4317 47.7466C50.4824 46.6909 51.0569 45.3386 51.9731 44.1884C52.6981 43.2784 53.6125 42.7392 54.7292 42.4447C56.0048 42.1082 57.3764 42.024 58.5676 41.4182C59.1088 41.1429 59.5705 40.7827 59.9675 40.3231C60.4084 39.8127 60.7094 39.223 61.0826 38.6671C61.3842 38.2179 61.7126 37.7863 62.1672 37.4825C62.6388 37.1673 63.1852 37.0911 63.7418 37.0813C64.9409 37.0602 66.2474 37.3477 67.3783 36.802C67.8902 36.5549 68.2511 36.2488 68.6001 35.8034C68.9526 35.3537 69.254 34.8672 69.6041 34.4166C70.1402 33.7265 70.8484 33.2956 71.6918 33.0912C72.778 32.8278 73.9061 32.4497 74.634 31.5507C75.6794 30.2596 76.1315 28.5913 77.1993 27.3037" stroke="black" stroke-linecap="round"/>
<path d="M47.1868 64.6279C46.7894 63.946 46.6573 63.1947 46.5496 62.4215C46.354 61.018 46.4526 59.5516 47.044 58.2488C47.55 57.1339 48.3564 56.077 49.4719 55.5185C50.6331 54.9371 52.0374 55.1089 53.2624 55.3411C54.3381 55.5449 55.4609 55.809 56.5315 55.4357C57.7763 55.0016 58.4998 53.8545 59.1738 52.7935C60.0907 51.3499 60.8299 49.7614 62.0163 48.5097C62.8873 47.5906 63.9618 46.8062 65.1796 46.4292C66.4708 46.0294 67.8256 45.9001 69.1363 45.5814C70.4216 45.269 71.577 44.5897 72.4437 43.5946C73.1375 42.7983 73.7182 41.8643 74.5368 41.1871C75.323 40.5366 76.1771 40.3052 77.1841 40.2636C78.0562 40.2275 78.9348 40.3227 79.7762 40.0317C80.4884 39.7854 80.7696 39.1809 80.954 38.5033C81.1734 37.6975 81.3278 36.8688 81.639 36.0909C81.9335 35.3544 82.2774 34.6538 82.6761 33.969" stroke="black" stroke-linecap="round"/>
<path d="M51.8862 70.3196C51.959 70.2635 51.9406 70.2074 51.9462 70.1251C51.9633 69.8704 51.9635 69.5953 52.0188 69.3464C52.1494 68.7591 52.4385 67.8455 53.0542 67.5851C53.3102 67.4769 53.6448 67.6619 53.8728 67.764C54.3222 67.9652 54.7482 68.2077 55.1741 68.4545C55.8903 68.8695 56.6223 69.305 57.4485 68.8871C58.5135 68.3484 58.8271 66.9202 59.1922 65.8991C59.5957 64.7709 60.0155 63.1613 61.2126 62.6057C61.648 62.4036 62.115 62.5239 62.5582 62.6327C63.3851 62.8356 64.2118 63.1022 65.0637 63.1763C66.8575 63.3325 68.5923 62.4806 69.7266 61.1176C70.3387 60.382 70.8353 59.5742 71.308 58.7451C71.7376 57.9914 72.1397 57.1934 72.7257 56.5458C73.23 55.9884 73.8258 55.4774 74.5017 55.1405C75.165 54.8099 75.8408 54.7019 76.5746 54.6792C77.4664 54.6518 78.8323 54.8922 79.4037 53.9903C79.5809 53.7107 79.6562 53.406 79.7199 53.0863C79.7751 52.8088 79.8516 52.4541 80.11 52.2934C80.4534 52.0797 80.9319 52.1694 81.3091 52.1997C82.0963 52.2629 82.891 52.3259 83.6812 52.3071C85.6013 52.2616 87.5813 51.8018 88.6431 50.0552C89.9292 47.9394 90.3671 45.2405 90.2154 42.7967C90.0842 40.6829 89.4258 38.6847 88.3105 36.8925" stroke="black" stroke-linecap="round"/>
<path d="M58.501 79.0201C58.493 79.1254 58.4164 79.3068 58.4396 79.4036C58.4745 79.5496 58.5454 79.1225 58.5898 78.9791C58.9205 77.9125 59.1386 76.8132 59.5549 75.7732C60.0654 74.4979 60.8321 73.314 61.8726 72.4066C62.9284 71.486 64.1843 70.9947 65.5576 70.7778C66.8326 70.5765 68.1162 70.7486 69.3963 70.6894C70.6794 70.6301 71.8566 70.2152 72.7988 69.3222C73.9036 68.275 74.6606 66.8799 75.4575 65.6005C76.0754 64.6085 76.7555 63.5978 77.7431 62.9398C78.3899 62.5088 79.1711 62.4874 79.9233 62.4403C81.0282 62.3712 82.0811 62.2402 83.0995 61.7735C83.8651 61.4226 84.4956 60.8861 85.1811 60.4114C85.6929 60.057 86.2483 60.0007 86.8565 60.0308C87.6555 60.0703 88.4679 60.0923 89.2184 59.7659C90.2571 59.3143 91.0257 58.3481 91.7432 57.5089C92.5175 56.6031 93.1816 55.5956 93.9819 54.7154C94.4989 54.1468 95.094 53.713 95.7245 53.2832" stroke="black" stroke-linecap="round"/>
</svg>
