<svg width="149" height="127" viewBox="0 0 149 127" fill="none" xmlns="http://www.w3.org/2000/svg">
<rect x="22.3732" y="62.1301" width="71" height="53" rx="4" transform="rotate(-58.8406 22.3732 62.1301)" fill="#FFF1BE"/>
<rect x="22.3732" y="62.1301" width="71" height="53" rx="4" transform="rotate(-58.8406 22.3732 62.1301)" fill="#FFF1BE"/>
<rect x="22.3732" y="62.1301" width="71" height="53" rx="4" transform="rotate(-58.8406 22.3732 62.1301)" stroke="black" stroke-width="2" stroke-linecap="round" stroke-linejoin="round" stroke-dasharray="19 5"/>
<rect x="22.3732" y="62.1301" width="71" height="53" rx="4" transform="rotate(-58.8406 22.3732 62.1301)" fill="#FFF1BE"/>
<rect x="22.3732" y="62.1301" width="71" height="53" rx="4" transform="rotate(-58.8406 22.3732 62.1301)" fill="#FFF1BE"/>
<rect x="22.3732" y="62.1301" width="71" height="53" rx="4" transform="rotate(-58.8406 22.3732 62.1301)" stroke="black" stroke-width="2" stroke-linecap="round" stroke-linejoin="round" stroke-dasharray="19 5"/>
<path d="M41.1993 57.9055C41.1313 57.8545 41.0985 57.7635 41.0662 57.688C40.9431 57.3998 40.8235 57.1127 40.6936 56.8271C40.3133 55.991 39.7341 55.1618 39.5134 54.2657C39.446 53.9922 39.3873 53.6572 39.4969 53.3863C39.6351 53.0449 40.0237 52.8478 40.346 52.7207C41.5894 52.2302 42.9022 52.0405 44.059 51.3318C45.2697 50.5899 46.2279 49.3579 46.6647 48.0069C47.123 46.5897 47.0223 45.1238 47.3179 43.6834C47.5517 42.5436 48.1226 41.6486 48.9846 40.88C49.9692 40.0021 51.1537 39.3055 51.9411 38.2256C52.2988 37.7349 52.5472 37.2046 52.6928 36.615C52.8545 35.9603 52.8556 35.2982 52.9364 34.6335C53.0017 34.0964 53.0989 33.5629 53.3665 33.086C53.644 32.5913 54.0966 32.2758 54.5883 32.0149C55.6477 31.4527 56.9426 31.1169 57.7034 30.118C58.0478 29.6658 58.2309 29.2294 58.3402 28.6742C58.4505 28.1136 58.4988 27.5433 58.6067 26.9829C58.7719 26.1249 59.2079 25.4198 59.8671 24.8554C60.716 24.1285 61.5504 23.2802 61.7919 22.1489C62.1387 20.5242 61.7857 18.8322 62.1541 17.2005" stroke="black" stroke-linecap="round"/>
<path d="M52.3134 64.0727C51.65 63.6449 51.1919 63.035 50.7455 62.3946C49.9352 61.2321 49.3585 59.8803 49.2953 58.4509C49.2413 57.2277 49.4812 55.9202 50.2225 54.9168C50.9941 53.8723 52.3238 53.3892 53.521 53.041C54.5723 52.7352 55.6929 52.4618 56.478 51.6439C57.391 50.6928 57.5162 49.3424 57.6362 48.0912C57.7995 46.3888 57.7386 44.6378 58.2289 42.9844C58.5889 41.7705 59.1913 40.5842 60.106 39.6963C61.0759 38.7548 62.225 38.0256 63.2491 37.1476C64.2532 36.2867 64.9753 35.1576 65.2971 33.8778C65.5546 32.8535 65.6491 31.7578 66.0719 30.7832C66.478 29.847 67.1345 29.2537 68.0134 28.7602C68.7744 28.3329 69.6008 28.0197 70.2189 27.379C70.7422 26.8367 70.719 26.1704 70.5763 25.4828C70.4067 24.6651 70.1689 23.8564 70.0937 23.0219C70.0226 22.2319 70.0116 21.4515 70.0567 20.6604" stroke="black" stroke-linecap="round"/>
<path d="M59.0817 67.0169C59.1211 66.934 59.0794 66.8923 59.047 66.8164C58.9469 66.5816 58.8224 66.3363 58.7589 66.0893C58.6091 65.5066 58.4529 64.5612 58.8838 64.0501C59.0629 63.8376 59.445 63.8509 59.6945 63.8386C60.1863 63.8143 60.676 63.8374 61.1674 63.8644C61.994 63.9098 62.8438 63.9664 63.391 63.2194C64.0962 62.2566 63.7286 60.8414 63.5914 59.7657C63.4398 58.5772 63.0847 56.9521 63.9 55.9143C64.1965 55.5368 64.6674 55.4325 65.1118 55.3286C65.9409 55.1348 66.7986 54.9978 67.5916 54.6779C69.2614 54.0042 70.4219 52.4586 70.8154 50.7296C71.0277 49.7966 71.1044 48.8513 71.15 47.8981C71.1914 47.0316 71.1883 46.138 71.4172 45.2952C71.6142 44.5697 71.9137 43.8442 72.3636 43.2377C72.8051 42.6424 73.3585 42.2398 74.0024 41.8871C74.7849 41.4585 76.1115 41.0539 76.2122 39.9909C76.2434 39.6614 76.1725 39.3557 76.0844 39.0418C76.0079 38.7695 75.9154 38.4186 76.0728 38.1582C76.2821 37.8121 76.7493 37.6752 77.0993 37.5313C77.8297 37.2309 78.5666 36.927 79.2626 36.5522C80.9536 35.6415 82.5103 34.3344 82.6653 32.2962C82.853 29.8273 82.0204 27.2231 80.7778 25.1133C79.7029 23.2884 78.2105 21.8055 76.4042 20.7133" stroke="black" stroke-linecap="round"/>
<path d="M68.921 71.7755C68.9615 71.8729 68.9755 72.0694 69.0401 72.1452C69.1374 72.2595 69.0069 71.8466 68.9816 71.6987C68.793 70.598 68.4893 69.5193 68.3891 68.4035C68.2663 67.0353 68.4133 65.6325 68.9297 64.3521C69.4536 63.053 70.3505 62.046 71.4765 61.2303C72.5219 60.4731 73.7441 60.0448 74.8584 59.412C75.9753 58.7777 76.8367 57.8744 77.2719 56.6514C77.7823 55.2172 77.8249 53.6306 77.9556 52.1289C78.0568 50.9646 78.2051 49.7555 78.7873 48.7214C79.1686 48.0441 79.8552 47.671 80.5044 47.2882C81.4581 46.7259 82.3373 46.132 83.0337 45.2544C83.5572 44.5948 83.8761 43.8308 84.2721 43.097C84.5677 42.5491 85.0373 42.2472 85.5931 41.9985C86.3233 41.6717 87.0575 41.3231 87.5786 40.6921C88.2998 39.8188 88.5472 38.6092 88.8065 37.5359C89.0863 36.3776 89.2217 35.1786 89.5363 34.0313C89.7395 33.2901 90.0734 32.6338 90.4407 31.965" stroke="black" stroke-linecap="round"/>
<rect x="32.2369" y="58.1431" width="71" height="53" rx="4" transform="rotate(-49.247 32.2369 58.1431)" fill="#EBCBFF" stroke="black" stroke-width="2" stroke-linecap="round" stroke-linejoin="round" stroke-dasharray="19 5"/>
<rect x="32.2369" y="58.1431" width="71" height="53" rx="4" transform="rotate(-49.247 32.2369 58.1431)" fill="#EBCBFF" stroke="black" stroke-width="2" stroke-linecap="round" stroke-linejoin="round" stroke-dasharray="19 5"/>
<path d="M51.5039 57.1152C51.4453 57.0535 51.4281 56.9583 51.4089 56.8785C51.3355 56.5739 51.2654 56.2708 51.1849 55.9676C50.9493 55.0798 50.5164 54.1657 50.448 53.2453C50.4272 52.9644 50.4252 52.6243 50.5784 52.3755C50.7716 52.0618 51.1875 51.9323 51.5265 51.8606C52.8343 51.5843 54.1603 51.616 55.419 51.1099C56.7365 50.5803 57.8866 49.5251 58.5425 48.2659C59.2306 46.9448 59.3756 45.4827 59.9071 44.1117C60.3276 43.0268 61.0397 42.2394 62.0177 41.6252C63.1349 40.9237 64.4189 40.4343 65.3752 39.5007C65.8097 39.0765 66.143 38.595 66.3848 38.038C66.6534 37.4193 66.7648 36.7666 66.9553 36.1247C67.1092 35.606 67.2939 35.0962 67.6372 34.6705C67.9933 34.229 68.4921 33.9933 69.0205 33.818C70.1588 33.4403 71.4915 33.325 72.4082 32.4668C72.8231 32.0784 73.0763 31.6786 73.2766 31.1493C73.4789 30.615 73.6215 30.0607 73.8213 29.5262C74.1272 28.7076 74.6746 28.0851 75.4187 27.6384C76.3769 27.0632 77.3409 26.3658 77.7676 25.2906C78.3803 23.7465 78.3142 22.0192 78.9494 20.4718" stroke="black" stroke-linecap="round"/>
<path d="M61.4346 65.0484C60.8519 64.516 60.5018 63.8383 60.1684 63.1325C59.5631 61.8511 59.2198 60.4221 59.3957 59.0022C59.5463 57.7871 60.0007 56.5379 60.8989 55.672C61.8338 54.7708 63.2254 54.516 64.4639 54.3722C65.5515 54.2459 66.7019 54.1631 67.6124 53.4875C68.6712 52.7019 69.0197 51.3912 69.3465 50.1775C69.7912 48.5261 70.023 46.7895 70.782 45.2409C71.3393 44.1039 72.131 43.0347 73.1809 42.3116C74.2941 41.545 75.5486 41.0174 76.7047 40.3224C77.8383 39.6409 78.7385 38.6479 79.269 37.4396C79.6937 36.4726 79.9694 35.408 80.5488 34.5174C81.1052 33.662 81.8514 33.1864 82.8002 32.8463C83.6219 32.5518 84.4889 32.3807 85.2051 31.852C85.8115 31.4045 85.8996 30.7437 85.8736 30.0419C85.8426 29.2073 85.7429 28.3703 85.8078 27.535C85.8694 26.7442 85.9886 25.9728 86.1649 25.2003" stroke="black" stroke-linecap="round"/>
<path d="M67.6176 69.0795C67.6703 69.0043 67.6361 68.9562 67.6168 68.876C67.5573 68.6277 67.4754 68.3651 67.4539 68.111C67.4034 67.5115 67.4069 66.5533 67.9169 66.1211C68.129 65.9414 68.5035 66.0182 68.7516 66.0477C69.2405 66.1057 69.7195 66.2101 70.1996 66.3186C71.007 66.5012 71.8355 66.6986 72.4995 66.0532C73.3554 65.2215 73.2287 63.7647 73.2727 62.6812C73.3213 61.4841 73.242 59.8225 74.2189 58.9351C74.5742 58.6123 75.0558 58.5879 75.5114 58.5596C76.3612 58.5066 77.2297 58.5145 78.0649 58.3312C79.8237 57.9453 81.2255 56.6147 81.9016 54.9755C82.2665 54.0908 82.4996 53.1716 82.7034 52.2393C82.8887 51.3918 83.0346 50.5102 83.4007 49.7173C83.7159 49.0348 84.1321 48.3694 84.6768 47.8463C85.2113 47.3329 85.8241 47.0282 86.5178 46.7878C87.3608 46.4956 88.7362 46.3177 89.0127 45.2864C89.0984 44.9667 89.0794 44.6534 89.0448 44.3292C89.0148 44.0479 88.9821 43.6866 89.1807 43.4561C89.4447 43.1497 89.9282 43.0926 90.2973 43.009C91.0675 42.8345 91.8448 42.6577 92.5935 42.4041C94.4126 41.788 96.1654 40.7586 96.6579 38.7748C97.2545 36.3717 96.8675 33.6651 95.9939 31.3777C95.2382 29.3992 94.0139 27.6883 92.4148 26.3104" stroke="black" stroke-linecap="round"/>
<path d="M76.5262 75.4112C76.55 75.5141 76.531 75.7101 76.582 75.7956C76.6589 75.9245 76.5991 75.4957 76.5988 75.3456C76.5963 74.2289 76.4766 73.1146 76.5638 71.9978C76.6707 70.6282 77.0494 69.2696 77.772 68.0931C78.5051 66.8995 79.5573 66.056 80.8035 65.4394C81.9604 64.867 83.2369 64.6485 84.4411 64.2102C85.6481 63.7709 86.648 63.0238 87.2809 61.8904C88.0232 60.5614 88.3297 59.004 88.7087 57.5451C89.0026 56.414 89.3504 55.2465 90.0967 54.3239C90.5855 53.7196 91.3248 53.4662 92.0287 53.1969C93.0628 52.8014 94.0287 52.3623 94.8615 51.6131C95.4877 51.0499 95.9294 50.3498 96.4421 49.6922C96.8249 49.2013 97.3383 48.9819 97.9278 48.8292C98.7022 48.6287 99.4842 48.4074 100.103 47.872C100.96 47.1312 101.405 45.9797 101.84 44.9646C102.309 43.8692 102.642 42.7095 103.144 41.6307C103.468 40.9337 103.906 40.3422 104.38 39.7439" stroke="black" stroke-linecap="round"/>
<rect x="42.3774" y="49.3288" width="71" height="53" rx="4" transform="rotate(-31.8948 42.3774 49.3288)" fill="#FFCBD4" stroke="black" stroke-width="2" stroke-linecap="round" stroke-linejoin="round" stroke-dasharray="19 5"/>
<rect x="42.3774" y="49.3288" width="71" height="53" rx="4" transform="rotate(-31.8948 42.3774 49.3288)" fill="#FFCBD4" stroke="black" stroke-width="2" stroke-linecap="round" stroke-linejoin="round" stroke-dasharray="19 5"/>
<path d="M61.0741 54.0939C61.0366 54.0176 61.0486 53.9216 61.054 53.8397C61.0748 53.5271 61.0984 53.2169 61.112 52.9035C61.1518 51.9858 61.0112 50.9842 61.2205 50.0853C61.2844 49.811 61.3839 49.4858 61.6044 49.2939C61.8823 49.0522 62.3179 49.0526 62.6629 49.0853C63.9936 49.2115 65.2497 49.6373 66.6021 49.5297C68.0176 49.417 69.4301 48.753 70.4317 47.7466C71.4824 46.6909 72.0569 45.3386 72.9731 44.1884C73.6981 43.2784 74.6125 42.7392 75.7292 42.4447C77.0048 42.1082 78.3764 42.024 79.5676 41.4182C80.1088 41.1429 80.5705 40.7827 80.9675 40.3231C81.4084 39.8127 81.7094 39.223 82.0826 38.667C82.3842 38.2179 82.7126 37.7863 83.1672 37.4824C83.6388 37.1672 84.1852 37.091 84.7418 37.0813C85.9409 37.0602 87.2474 37.3477 88.3783 36.802C88.8902 36.5549 89.2511 36.2488 89.6001 35.8034C89.9526 35.3537 90.254 34.8672 90.6041 34.4165C91.1402 33.7265 91.8484 33.2956 92.6918 33.0911C93.778 32.8278 94.9061 32.4497 95.634 31.5507C96.6794 30.2596 97.1315 28.5912 98.1993 27.3037" stroke="black" stroke-linecap="round"/>
<path d="M68.1868 64.6279C67.7894 63.9459 67.6573 63.1947 67.5496 62.4215C67.354 61.018 67.4526 59.5516 68.044 58.2488C68.55 57.1339 69.3564 56.077 70.4719 55.5185C71.6331 54.9371 73.0374 55.1089 74.2624 55.341C75.3381 55.5449 76.4609 55.809 77.5315 55.4356C78.7763 55.0015 79.4998 53.8544 80.1738 52.7934C81.0907 51.3499 81.8299 49.7614 83.0163 48.5097C83.8873 47.5906 84.9618 46.8062 86.1796 46.4291C87.4708 46.0294 88.8256 45.9 90.1363 45.5814C91.4216 45.269 92.577 44.5897 93.4437 43.5946C94.1375 42.7982 94.7182 41.8643 95.5368 41.1871C96.323 40.5366 97.1771 40.3052 98.1841 40.2635C99.0562 40.2275 99.9348 40.3227 100.776 40.0317C101.488 39.7854 101.77 39.1809 101.954 38.5033C102.173 37.6975 102.328 36.8688 102.639 36.0909C102.934 35.3544 103.277 34.6538 103.676 33.969" stroke="black" stroke-linecap="round"/>
<path d="M72.8862 70.3196C72.959 70.2635 72.9406 70.2074 72.9462 70.1251C72.9633 69.8704 72.9635 69.5953 73.0188 69.3464C73.1494 68.7591 73.4385 67.8455 74.0542 67.5851C74.3102 67.4769 74.6448 67.6619 74.8728 67.764C75.3222 67.9652 75.7482 68.2077 76.1741 68.4545C76.8903 68.8695 77.6223 69.305 78.4485 68.8871C79.5135 68.3484 79.8271 66.9202 80.1922 65.8991C80.5957 64.7709 81.0155 63.1613 82.2126 62.6057C82.648 62.4036 83.115 62.5239 83.5582 62.6327C84.3851 62.8356 85.2118 63.1022 86.0637 63.1763C87.8575 63.3325 89.5923 62.4806 90.7266 61.1176C91.3387 60.382 91.8353 59.5742 92.308 58.7451C92.7376 57.9914 93.1397 57.1934 93.7257 56.5458C94.23 55.9884 94.8258 55.4774 95.5017 55.1405C96.165 54.8099 96.8408 54.7019 97.5746 54.6792C98.4664 54.6518 99.8323 54.8922 100.404 53.9903C100.581 53.7107 100.656 53.406 100.72 53.0863C100.775 52.8088 100.852 52.4541 101.11 52.2934C101.453 52.0797 101.932 52.1694 102.309 52.1997C103.096 52.2629 103.891 52.3259 104.681 52.3071C106.601 52.2616 108.581 51.8018 109.643 50.0552C110.929 47.9394 111.367 45.2405 111.215 42.7967C111.084 40.6829 110.426 38.6847 109.311 36.8925" stroke="black" stroke-linecap="round"/>
<path d="M79.501 79.0201C79.493 79.1254 79.4164 79.3068 79.4396 79.4036C79.4745 79.5496 79.5454 79.1225 79.5898 78.9791C79.9205 77.9125 80.1386 76.8132 80.5549 75.7732C81.0654 74.4979 81.8321 73.314 82.8726 72.4066C83.9284 71.486 85.1843 70.9947 86.5576 70.7778C87.8326 70.5765 89.1162 70.7486 90.3963 70.6894C91.6794 70.6301 92.8566 70.2152 93.7988 69.3222C94.9036 68.275 95.6606 66.8799 96.4575 65.6005C97.0754 64.6085 97.7555 63.5978 98.7431 62.9398C99.3899 62.5088 100.171 62.4874 100.923 62.4403C102.028 62.3712 103.081 62.2402 104.1 61.7735C104.865 61.4226 105.496 60.8861 106.181 60.4114C106.693 60.057 107.248 60.0007 107.857 60.0308C108.655 60.0703 109.468 60.0923 110.218 59.7659C111.257 59.3143 112.026 58.3481 112.743 57.5089C113.518 56.6031 114.182 55.5956 114.982 54.7154C115.499 54.1468 116.094 53.713 116.724 53.2832" stroke="black" stroke-linecap="round"/>
<path d="M22.1077 100.64C22.2011 100.547 22.3744 100.5 22.6277 100.5C22.7744 100.5 22.9211 100.52 23.0677 100.56C23.2144 100.6 23.3211 100.647 23.3877 100.7C23.6277 100.687 23.8211 100.753 23.9677 100.9C24.1144 101.047 24.1877 101.227 24.1877 101.44C24.1877 101.667 24.1011 101.867 23.9277 102.04C23.7677 102.213 23.5344 102.3 23.2277 102.3C23.0811 102.3 22.9277 102.28 22.7677 102.24C22.6211 102.373 22.4411 102.44 22.2277 102.44C22.0011 102.44 21.8144 102.373 21.6677 102.24C21.5077 102.36 21.3344 102.42 21.1477 102.42C20.9877 102.42 20.8477 102.393 20.7277 102.34C20.5811 102.447 20.4211 102.5 20.2477 102.5C20.0877 102.5 19.9477 102.46 19.8277 102.38C19.6677 102.46 19.5211 102.5 19.3877 102.5C19.1877 102.5 18.9744 102.427 18.7477 102.28C18.5077 102.467 18.2544 102.56 17.9877 102.56C17.7744 102.56 17.5811 102.5 17.4077 102.38C17.2877 102.5 17.1544 102.58 17.0077 102.62C16.8744 102.66 16.6877 102.673 16.4477 102.66C16.5944 102.847 16.6677 103.067 16.6677 103.32C16.6677 103.56 16.5811 103.84 16.4077 104.16C16.5944 104.333 16.6877 104.547 16.6877 104.8C16.6877 105.013 16.6077 105.32 16.4477 105.72C16.6211 105.933 16.7077 106.113 16.7077 106.26C16.7077 106.38 16.6544 106.533 16.5477 106.72C16.5877 106.787 16.6211 106.893 16.6477 107.04C16.8344 107.013 16.9677 107 17.0477 107C17.2744 107 17.4611 107.053 17.6077 107.16C17.7144 107.12 17.8477 107.1 18.0077 107.1C18.2077 107.1 18.3744 107.12 18.5077 107.16C18.6144 107.04 18.7944 106.98 19.0477 106.98C19.3411 106.98 19.5544 107.04 19.6877 107.16C19.8611 107.053 20.0744 107 20.3277 107C20.5677 107 20.7744 107.047 20.9477 107.14C21.0011 107.073 21.0877 107.02 21.2077 106.98C21.3411 106.927 21.4744 106.9 21.6077 106.9C21.8344 106.9 22.0011 106.953 22.1077 107.06C22.2944 107.113 22.4344 107.207 22.5277 107.34C22.6344 107.473 22.6877 107.627 22.6877 107.8C22.6877 108.027 22.6077 108.233 22.4477 108.42C22.3011 108.593 22.1144 108.68 21.8877 108.68C21.7544 108.68 21.6344 108.653 21.5277 108.6C21.3944 108.693 21.2477 108.74 21.0877 108.74C20.9544 108.74 20.8211 108.707 20.6877 108.64C20.4877 108.76 20.1944 108.82 19.8077 108.82C19.5144 108.82 19.2877 108.78 19.1277 108.7C18.9411 108.807 18.7611 108.86 18.5877 108.86C18.4544 108.86 18.2811 108.82 18.0677 108.74C17.8544 108.82 17.6744 108.86 17.5277 108.86C17.3411 108.86 17.1544 108.787 16.9677 108.64C16.8877 108.733 16.7477 108.813 16.5477 108.88C16.6677 109 16.7277 109.2 16.7277 109.48C16.7277 109.76 16.6544 109.987 16.5077 110.16C16.6144 110.307 16.7011 110.48 16.7677 110.68C16.8344 110.88 16.8677 111.073 16.8677 111.26C16.8677 111.46 16.8277 111.64 16.7477 111.8C16.8144 111.893 16.8477 112.02 16.8477 112.18C16.8477 112.393 16.7744 112.587 16.6277 112.76C16.8144 112.947 16.9077 113.16 16.9077 113.4C16.9077 113.627 16.8344 113.833 16.6877 114.02C16.7011 114.06 16.7077 114.12 16.7077 114.2C16.7077 114.453 16.6211 114.653 16.4477 114.8C16.2877 114.933 16.1011 115 15.8877 115C15.7144 115 15.5677 114.96 15.4477 114.88C15.1544 114.72 15.0077 114.48 15.0077 114.16C15.0077 113.947 15.0811 113.753 15.2277 113.58C15.0544 113.407 14.9677 113.133 14.9677 112.76C14.9677 112.547 14.9944 112.387 15.0477 112.28C14.9411 112.107 14.8877 111.887 14.8877 111.62C14.8877 111.473 14.9077 111.333 14.9477 111.2C14.9877 111.067 15.0344 110.973 15.0877 110.92C14.9811 110.76 14.9277 110.487 14.9277 110.1C14.9277 109.753 14.9744 109.533 15.0677 109.44C15.0011 109.373 14.9477 109.267 14.9077 109.12C14.8677 108.973 14.8477 108.827 14.8477 108.68C14.8477 108.533 14.8677 108.42 14.9077 108.34C14.7611 108.153 14.6877 107.933 14.6877 107.68C14.6877 107.453 14.7544 107.287 14.8877 107.18C14.7811 107.007 14.7277 106.787 14.7277 106.52C14.7277 106.253 14.7744 106.067 14.8677 105.96C14.7744 105.867 14.7277 105.713 14.7277 105.5C14.7277 105.247 14.7944 105.047 14.9277 104.9C14.7277 104.66 14.6277 104.4 14.6277 104.12C14.6277 103.827 14.7144 103.573 14.8877 103.36C14.7811 103.253 14.7277 103.073 14.7277 102.82C14.7277 102.54 14.7744 102.287 14.8677 102.06C14.8411 101.98 14.8277 101.867 14.8277 101.72C14.8277 101.387 14.9944 101.2 15.3277 101.16C15.5011 100.987 15.7544 100.9 16.0877 100.9C16.2877 100.9 16.4477 100.927 16.5677 100.98C16.6611 100.9 16.7877 100.84 16.9477 100.8C17.1211 100.747 17.2877 100.72 17.4477 100.72C17.6611 100.72 17.8144 100.753 17.9077 100.82C18.1744 100.687 18.4944 100.62 18.8677 100.62C19.1477 100.62 19.3677 100.673 19.5277 100.78C19.6344 100.74 19.7411 100.72 19.8477 100.72C19.9811 100.72 20.0944 100.747 20.1877 100.8C20.3211 100.707 20.4744 100.66 20.6477 100.66C20.7677 100.66 20.8811 100.687 20.9877 100.74C21.1611 100.633 21.4011 100.58 21.7077 100.58C21.8811 100.58 22.0144 100.6 22.1077 100.64ZM28.239 112.5C28.3723 112.647 28.439 112.873 28.439 113.18C28.439 113.38 28.4057 113.573 28.339 113.76C28.2857 113.933 28.2123 114.06 28.119 114.14C28.159 114.393 28.0923 114.6 27.919 114.76C27.7457 114.92 27.539 115 27.299 115C27.139 115 26.9857 114.96 26.839 114.88C26.6923 114.8 26.5857 114.667 26.519 114.48C26.4523 114.293 26.419 114.093 26.419 113.88C26.419 113.587 26.4657 113.353 26.559 113.18C26.4923 113.06 26.459 112.887 26.459 112.66C26.459 112.407 26.499 112.147 26.579 111.88C26.4857 111.773 26.439 111.58 26.439 111.3C26.439 110.94 26.4923 110.673 26.599 110.5C26.519 110.313 26.479 110.133 26.479 109.96C26.479 109.72 26.539 109.48 26.659 109.24C26.5523 108.96 26.499 108.707 26.499 108.48C26.499 108.293 26.539 108.08 26.619 107.84C26.4857 107.693 26.419 107.507 26.419 107.28C26.419 107.187 26.4257 107.12 26.439 107.08C26.2923 106.907 26.219 106.707 26.219 106.48C26.219 106.333 26.259 106.193 26.339 106.06C26.2457 105.847 26.199 105.64 26.199 105.44C26.199 105.12 26.279 104.88 26.439 104.72C26.359 104.533 26.319 104.307 26.319 104.04C26.319 103.827 26.3523 103.673 26.419 103.58C26.3523 103.54 26.299 103.467 26.259 103.36C26.219 103.253 26.199 103.133 26.199 103C26.199 102.773 26.2523 102.587 26.359 102.44C26.319 102.333 26.299 102.193 26.299 102.02C26.299 101.887 26.3123 101.767 26.339 101.66C26.179 101.5 26.099 101.313 26.099 101.1C26.099 100.873 26.1923 100.68 26.379 100.52C26.579 100.347 26.799 100.26 27.039 100.26C27.199 100.26 27.3457 100.313 27.479 100.42C27.6123 100.513 27.7057 100.66 27.759 100.86C27.959 100.993 28.059 101.2 28.059 101.48C28.059 101.533 28.0457 101.613 28.019 101.72C28.179 101.88 28.259 102.087 28.259 102.34C28.259 102.553 28.1923 102.72 28.059 102.84C28.1257 102.893 28.1857 102.987 28.239 103.12C28.2923 103.24 28.319 103.373 28.319 103.52C28.319 103.76 28.2323 103.96 28.059 104.12C28.1657 104.267 28.219 104.447 28.219 104.66C28.219 104.873 28.179 105.047 28.099 105.18C28.1523 105.233 28.179 105.367 28.179 105.58C28.179 105.7 28.1657 105.827 28.139 105.96C28.1123 106.093 28.0723 106.187 28.019 106.24C28.219 106.413 28.319 106.633 28.319 106.9C28.319 107.047 28.2923 107.173 28.239 107.28C28.319 107.4 28.359 107.58 28.359 107.82C28.359 108.127 28.3057 108.373 28.199 108.56C28.2923 108.747 28.339 108.993 28.339 109.3C28.339 109.673 28.279 109.94 28.159 110.1C28.2523 110.233 28.299 110.4 28.299 110.6C28.299 110.773 28.259 110.98 28.179 111.22C28.299 111.353 28.359 111.56 28.359 111.84C28.359 112.08 28.319 112.3 28.239 112.5ZM30.8246 107.24C30.7179 107.067 30.6646 106.9 30.6646 106.74C30.6646 106.5 30.7446 106.3 30.9046 106.14C30.9446 105.94 31.0379 105.753 31.1846 105.58C31.3313 105.393 31.4913 105.253 31.6646 105.16C31.8513 105.053 31.9979 105.013 32.1046 105.04C32.1979 104.893 32.3846 104.76 32.6646 104.64C32.9446 104.507 33.2046 104.44 33.4446 104.44C33.4979 104.44 33.5779 104.453 33.6846 104.48C33.8313 104.32 34.0246 104.24 34.2646 104.24C34.4513 104.24 34.5846 104.293 34.6646 104.4C34.8379 104.28 35.0646 104.22 35.3446 104.22C35.6779 104.22 35.9713 104.3 36.2246 104.46C36.4913 104.62 36.6446 104.833 36.6846 105.1C36.9246 105.18 37.1046 105.307 37.2246 105.48C37.3579 105.64 37.4379 105.867 37.4646 106.16C37.6379 106.333 37.7646 106.54 37.8446 106.78C37.9246 107.007 37.9646 107.24 37.9646 107.48C37.9646 107.787 37.9113 108.033 37.8046 108.22C37.8979 108.353 37.9779 108.553 38.0446 108.82C38.1113 109.087 38.1446 109.347 38.1446 109.6C38.1446 109.707 38.1313 109.84 38.1046 110C38.1979 110.2 38.2446 110.333 38.2446 110.4C38.2446 110.44 38.2246 110.533 38.1846 110.68C38.1979 110.733 38.2113 110.8 38.2246 110.88C38.2379 110.947 38.2446 111.033 38.2446 111.14C38.2446 111.34 38.1713 111.52 38.0246 111.68C38.0779 111.827 38.1046 112.007 38.1046 112.22C38.1046 112.5 38.0379 112.727 37.9046 112.9C37.9313 112.953 37.9446 113.04 37.9446 113.16C37.9446 113.44 37.8313 113.673 37.6046 113.86C37.5513 114.047 37.4513 114.193 37.3046 114.3C37.1579 114.393 36.9979 114.44 36.8246 114.44C36.6513 114.44 36.5113 114.387 36.4046 114.28C36.0579 114.427 35.7779 114.5 35.5646 114.5C35.4579 114.5 35.3779 114.493 35.3246 114.48C34.9779 114.587 34.6846 114.64 34.4446 114.64C34.2713 114.64 34.0313 114.607 33.7246 114.54C33.5379 114.647 33.3579 114.7 33.1846 114.7C33.0246 114.7 32.8779 114.653 32.7446 114.56C32.6779 114.573 32.5779 114.58 32.4446 114.58C31.9246 114.58 31.5246 114.347 31.2446 113.88C30.7379 113.587 30.4846 113.147 30.4846 112.56C30.4846 112.413 30.4913 112.3 30.5046 112.22C30.3846 112.14 30.3246 111.973 30.3246 111.72C30.3246 111.547 30.3579 111.393 30.4246 111.26C30.3713 111.02 30.3446 110.867 30.3446 110.8C30.3446 110.413 30.5313 110.067 30.9046 109.76C31.0513 109.453 31.2179 109.247 31.4046 109.14C31.6046 109.033 31.8513 108.953 32.1446 108.9C32.2246 108.673 32.4113 108.52 32.7046 108.44C32.9979 108.36 33.2846 108.333 33.5646 108.36C33.6446 108.307 33.7579 108.26 33.9046 108.22C34.0513 108.167 34.1979 108.14 34.3446 108.14C34.5046 108.14 34.6446 108.167 34.7646 108.22C34.7913 108.193 34.8579 108.18 34.9646 108.18C35.0446 108.18 35.1246 108.187 35.2046 108.2C35.2846 108.213 35.3379 108.233 35.3646 108.26C35.5513 108.02 35.7713 107.9 36.0246 107.9C36.1046 107.9 36.1846 107.92 36.2646 107.96V107.9C36.2646 107.673 36.3113 107.513 36.4046 107.42C36.2713 107.38 36.1246 107.267 35.9646 107.08C35.8179 106.88 35.7313 106.7 35.7046 106.54C35.4913 106.447 35.3446 106.293 35.2646 106.08C35.1046 106.2 34.9179 106.26 34.7046 106.26C34.5579 106.26 34.4179 106.22 34.2846 106.14C34.0579 106.207 33.9113 106.233 33.8446 106.22C33.6579 106.353 33.4513 106.42 33.2246 106.42C33.0246 106.687 32.7913 106.807 32.5246 106.78C32.4046 106.993 32.2379 107.18 32.0246 107.34C31.8246 107.5 31.6179 107.58 31.4046 107.58C31.1646 107.58 30.9713 107.467 30.8246 107.24ZM31.9246 111.7C32.0846 111.86 32.1646 112.013 32.1646 112.16C32.1646 112.267 32.1379 112.4 32.0846 112.56C32.1379 112.56 32.2113 112.593 32.3046 112.66C32.4113 112.713 32.4713 112.773 32.4846 112.84C32.5913 112.8 32.7246 112.78 32.8846 112.78C33.1779 112.78 33.3713 112.847 33.4646 112.98C33.6113 112.927 33.7646 112.9 33.9246 112.9C34.1779 112.9 34.3779 112.973 34.5246 113.12C34.6313 113.013 34.8046 112.927 35.0446 112.86C35.2979 112.793 35.5246 112.76 35.7246 112.76C35.8446 112.52 36.0579 112.38 36.3646 112.34C36.3913 112.247 36.4646 112.127 36.5846 111.98C36.5313 111.9 36.4846 111.793 36.4446 111.66C36.4046 111.527 36.3846 111.393 36.3846 111.26C36.3846 110.98 36.4513 110.773 36.5846 110.64C36.4379 110.453 36.3646 110.233 36.3646 109.98C36.3646 109.807 36.3913 109.66 36.4446 109.54C36.3379 109.607 36.2179 109.64 36.0846 109.64C35.9646 109.64 35.8646 109.593 35.7846 109.5C35.6646 109.62 35.4979 109.68 35.2846 109.68C35.1513 109.68 35.0179 109.647 34.8846 109.58C34.7379 109.727 34.5579 109.8 34.3446 109.8C34.2779 109.8 34.1779 109.773 34.0446 109.72C33.8446 109.92 33.6646 109.98 33.5046 109.9C33.4246 110.087 33.3179 110.213 33.1846 110.28C33.0646 110.347 32.8913 110.38 32.6646 110.38C32.6113 110.527 32.5179 110.647 32.3846 110.74C32.2646 110.833 32.1379 110.867 32.0046 110.84C32.0713 110.933 32.1046 111.04 32.1046 111.16C32.1046 111.36 32.0446 111.54 31.9246 111.7ZM47.1815 112.64C47.2215 112.773 47.2415 112.907 47.2415 113.04C47.2415 113.307 47.1348 113.487 46.9215 113.58C46.9482 113.78 46.8682 113.98 46.6815 114.18C46.4948 114.38 46.3215 114.48 46.1615 114.48C46.0948 114.6 45.8948 114.713 45.5615 114.82C45.2282 114.927 44.9215 114.98 44.6415 114.98C44.4415 114.98 44.2882 114.94 44.1815 114.86C43.9948 114.953 43.7282 115 43.3815 115C43.0748 115 42.7948 114.953 42.5415 114.86C42.3015 114.767 42.1548 114.627 42.1015 114.44C41.8348 114.48 41.5348 114.4 41.2015 114.2C40.8815 114 40.6748 113.793 40.5815 113.58C40.3415 113.513 40.1415 113.387 39.9815 113.2C39.8348 113.013 39.7548 112.793 39.7415 112.54C39.6615 112.42 39.6215 112.3 39.6215 112.18C39.6215 111.993 39.6815 111.827 39.8015 111.68C39.9348 111.533 40.0882 111.46 40.2615 111.46C40.4348 111.46 40.6015 111.567 40.7615 111.78C41.0015 111.753 41.2148 111.833 41.4015 112.02C41.6015 112.207 41.7015 112.393 41.7015 112.58C41.7415 112.58 41.8415 112.593 42.0015 112.62C42.1748 112.633 42.3282 112.68 42.4615 112.76C42.5948 112.84 42.6882 112.953 42.7415 113.1C42.9815 113.1 43.2148 113.133 43.4415 113.2C43.6815 113.253 43.8215 113.32 43.8615 113.4C43.9682 113.333 44.1215 113.28 44.3215 113.24C44.5348 113.187 44.7148 113.16 44.8615 113.16C44.9015 113.107 45.0015 113.053 45.1615 113C45.3215 112.947 45.4548 112.913 45.5615 112.9C45.4948 112.807 45.4615 112.667 45.4615 112.48C45.4615 112.2 45.5482 112 45.7215 111.88C45.5615 111.827 45.4348 111.747 45.3415 111.64C45.2482 111.52 45.2082 111.387 45.2215 111.24C45.1148 111.267 45.0348 111.28 44.9815 111.28C44.7282 111.28 44.5215 111.18 44.3615 110.98C44.0948 111.007 43.8282 110.947 43.5615 110.8C43.3082 110.653 43.1215 110.46 43.0015 110.22C42.9082 110.26 42.8082 110.28 42.7015 110.28C42.4748 110.28 42.2348 110.213 41.9815 110.08C41.7415 109.933 41.5882 109.793 41.5215 109.66C41.3348 109.713 41.1148 109.653 40.8615 109.48C40.6082 109.307 40.4815 109.113 40.4815 108.9C40.3215 108.82 40.1948 108.687 40.1015 108.5C40.0082 108.3 39.9615 108.12 39.9615 107.96C39.9615 107.84 39.9882 107.76 40.0415 107.72C39.9748 107.587 39.9415 107.453 39.9415 107.32C39.9415 107.08 40.0215 106.873 40.1815 106.7C40.1415 106.553 40.1215 106.42 40.1215 106.3C40.1215 106.073 40.1682 105.887 40.2615 105.74C40.3682 105.58 40.4948 105.513 40.6415 105.54C40.6148 105.327 40.6615 105.14 40.7815 104.98C40.9148 104.82 41.0748 104.707 41.2615 104.64C41.4615 104.56 41.6348 104.533 41.7815 104.56C41.8615 104.44 41.9682 104.347 42.1015 104.28C42.2348 104.213 42.3682 104.18 42.5015 104.18C42.7282 104.18 42.8882 104.247 42.9815 104.38C42.9948 104.313 43.0415 104.26 43.1215 104.22C43.2148 104.18 43.3215 104.16 43.4415 104.16C43.5482 104.16 43.6548 104.18 43.7615 104.22C43.8682 104.26 43.9482 104.307 44.0015 104.36C44.0815 104.28 44.2215 104.24 44.4215 104.24C44.5815 104.24 44.7415 104.273 44.9015 104.34C45.0615 104.393 45.1682 104.473 45.2215 104.58C45.3015 104.54 45.3882 104.52 45.4815 104.52C45.6415 104.52 45.7882 104.58 45.9215 104.7C46.0682 104.807 46.1682 104.947 46.2215 105.12C46.4215 105.093 46.6282 105.16 46.8415 105.32C47.0548 105.48 47.1348 105.64 47.0815 105.8C47.4415 106 47.6215 106.273 47.6215 106.62C47.6215 106.833 47.5482 107.02 47.4015 107.18C47.2548 107.34 47.0682 107.42 46.8415 107.42C46.6415 107.407 46.4748 107.353 46.3415 107.26C46.2082 107.167 46.1282 107.053 46.1015 106.92C45.9282 106.893 45.7615 106.827 45.6015 106.72C45.4548 106.6 45.3748 106.447 45.3615 106.26C45.1082 106.287 44.9148 106.26 44.7815 106.18C44.6615 106.1 44.5548 105.973 44.4615 105.8C44.3682 105.867 44.2482 105.9 44.1015 105.9C43.9548 105.9 43.7948 105.86 43.6215 105.78C43.5282 105.86 43.4082 105.927 43.2615 105.98C43.1282 106.033 42.9948 106.06 42.8615 106.06C42.7148 106.06 42.5882 106.027 42.4815 105.96C42.5082 106.12 42.4682 106.247 42.3615 106.34C42.2548 106.433 42.1082 106.467 41.9215 106.44C41.9615 106.533 41.9815 106.633 41.9815 106.74C41.9815 106.98 41.8748 107.18 41.6615 107.34C41.8082 107.407 41.9148 107.52 41.9815 107.68C42.0482 107.827 42.0748 107.973 42.0615 108.12L42.2215 108.1C42.6215 108.1 42.8748 108.227 42.9815 108.48L43.1415 108.46C43.3548 108.46 43.5548 108.513 43.7415 108.62C43.9415 108.727 44.0882 108.907 44.1815 109.16C44.3948 109.147 44.6015 109.173 44.8015 109.24C45.0015 109.293 45.1415 109.4 45.2215 109.56C45.3282 109.52 45.4282 109.5 45.5215 109.5C45.7482 109.5 45.9482 109.567 46.1215 109.7C46.3082 109.833 46.4082 109.987 46.4215 110.16C46.5415 110.16 46.6482 110.227 46.7415 110.36C46.8482 110.493 46.8882 110.647 46.8615 110.82C46.9548 110.807 47.0415 110.86 47.1215 110.98C47.2015 111.087 47.2415 111.213 47.2415 111.36C47.2415 111.44 47.2215 111.513 47.1815 111.58C47.3682 111.713 47.4615 111.893 47.4615 112.12C47.4615 112.24 47.4348 112.347 47.3815 112.44C47.3415 112.533 47.2748 112.6 47.1815 112.64ZM50.5868 113.88C50.6535 114.08 50.6868 114.233 50.6868 114.34C50.6868 114.567 50.6001 114.733 50.4268 114.84C50.2668 114.947 50.0468 115 49.7668 115C49.4735 115 49.2468 114.907 49.0868 114.72C48.9401 114.52 48.8668 114.287 48.8668 114.02C48.8668 113.793 48.9201 113.613 49.0268 113.48C48.8668 113.32 48.7868 113.08 48.7868 112.76C48.7868 112.413 48.8935 112.14 49.1068 111.94C48.9335 111.767 48.8468 111.54 48.8468 111.26C48.8468 110.98 48.9268 110.713 49.0868 110.46C49.0468 110.34 49.0268 110.2 49.0268 110.04C49.0268 109.84 49.0468 109.673 49.0868 109.54C48.9668 109.393 48.9068 109.233 48.9068 109.06C48.9068 108.9 48.9468 108.76 49.0268 108.64C48.9735 108.547 48.9468 108.44 48.9468 108.32C48.9468 108.213 48.9668 108.113 49.0068 108.02C48.8601 107.833 48.7868 107.613 48.7868 107.36C48.7868 107.16 48.8401 106.973 48.9468 106.8C48.9068 106.693 48.8868 106.587 48.8868 106.48C48.8868 106.413 48.9001 106.327 48.9268 106.22C48.8335 106.087 48.7868 105.893 48.7868 105.64C48.7868 105.4 48.8335 105.213 48.9268 105.08C48.8468 104.92 48.8068 104.74 48.8068 104.54C48.8068 104.353 48.8535 104.187 48.9468 104.04C48.8401 103.827 48.7868 103.627 48.7868 103.44C48.7868 103.213 48.8401 103.013 48.9468 102.84C48.8535 102.733 48.8068 102.573 48.8068 102.36C48.8068 102.2 48.8335 102.027 48.8868 101.84C48.8335 101.653 48.8068 101.5 48.8068 101.38C48.8068 101.22 48.8468 101.093 48.9268 101C48.9135 100.773 48.9801 100.587 49.1268 100.44C49.2735 100.293 49.4535 100.22 49.6668 100.22C49.7735 100.22 49.9068 100.253 50.0668 100.32C50.2135 100.4 50.3268 100.547 50.4068 100.76C50.5001 100.973 50.5468 101.2 50.5468 101.44C50.5468 101.68 50.5001 101.893 50.4068 102.08C50.5001 102.253 50.5468 102.44 50.5468 102.64C50.5468 102.867 50.4801 103.127 50.3468 103.42C50.4668 103.633 50.5268 103.86 50.5268 104.1C50.5268 104.247 50.5001 104.367 50.4468 104.46C50.5935 104.567 50.6668 104.727 50.6668 104.94C50.6668 105.06 50.6268 105.193 50.5468 105.34C50.6268 105.367 50.6735 105.467 50.6868 105.64C50.7135 105.813 50.7268 105.913 50.7268 105.94C50.7935 105.767 50.9135 105.633 51.0868 105.54C51.2601 105.433 51.4135 105.393 51.5468 105.42C51.6001 105.26 51.7001 105.14 51.8468 105.06C51.9935 104.967 52.1468 104.92 52.3068 104.92C52.3735 104.92 52.4601 104.933 52.5668 104.96C52.6735 104.853 52.8335 104.8 53.0468 104.8C53.1935 104.8 53.3135 104.827 53.4068 104.88C53.4735 104.84 53.5601 104.82 53.6668 104.82C53.8001 104.82 53.9335 104.853 54.0668 104.92C54.1735 104.88 54.2735 104.86 54.3668 104.86C54.5401 104.86 54.6868 104.92 54.8068 105.04C54.9268 105.013 55.0868 105.067 55.2868 105.2C55.4868 105.333 55.5935 105.487 55.6068 105.66C55.8468 105.86 55.9668 106.073 55.9668 106.3C55.9668 106.38 55.9468 106.453 55.9068 106.52C55.9868 106.573 56.0535 106.66 56.1068 106.78C56.1601 106.9 56.1868 107.027 56.1868 107.16C56.1868 107.253 56.1801 107.327 56.1668 107.38C56.3268 107.5 56.4068 107.687 56.4068 107.94C56.4068 108.127 56.3601 108.3 56.2668 108.46C56.3868 108.647 56.4468 108.82 56.4468 108.98C56.4468 109.073 56.4268 109.173 56.3868 109.28C56.4535 109.453 56.4868 109.653 56.4868 109.88C56.4868 110.147 56.4401 110.367 56.3468 110.54C56.3868 110.633 56.4068 110.833 56.4068 111.14C56.4068 111.527 56.3801 111.78 56.3268 111.9C56.4201 112.033 56.4668 112.24 56.4668 112.52C56.4668 112.84 56.4068 113.073 56.2868 113.22C56.3668 113.34 56.4068 113.513 56.4068 113.74C56.4068 114.007 56.3601 114.233 56.2668 114.42C56.2801 114.567 56.1935 114.693 56.0068 114.8C55.8335 114.907 55.6401 114.96 55.4268 114.96C55.2401 114.96 55.0868 114.913 54.9668 114.82C54.8601 114.727 54.8135 114.593 54.8268 114.42C54.6801 114.193 54.6068 113.94 54.6068 113.66C54.6068 113.42 54.6468 113.193 54.7268 112.98C54.6601 112.78 54.6268 112.54 54.6268 112.26C54.6268 111.967 54.6601 111.753 54.7268 111.62C54.6735 111.54 54.6468 111.413 54.6468 111.24C54.6468 111.04 54.6801 110.887 54.7468 110.78C54.6535 110.633 54.6068 110.46 54.6068 110.26C54.6068 110.113 54.6401 110.007 54.7068 109.94C54.5868 109.753 54.5268 109.553 54.5268 109.34C54.5268 109.193 54.5535 109.087 54.6068 109.02C54.4601 108.913 54.3868 108.727 54.3868 108.46C54.3868 108.247 54.4335 108.093 54.5268 108C54.2868 107.8 54.1668 107.58 54.1668 107.34C54.1668 107.207 54.1935 107.087 54.2468 106.98C54.1535 107.007 54.0468 106.98 53.9268 106.9C53.8068 106.807 53.7268 106.707 53.6868 106.6C53.5535 106.667 53.3868 106.7 53.1868 106.7C53.1068 106.7 53.0535 106.693 53.0268 106.68C52.9735 106.76 52.8668 106.833 52.7068 106.9C52.5601 106.953 52.4468 106.967 52.3668 106.94C52.2601 107.047 52.1268 107.153 51.9668 107.26C51.8068 107.367 51.6935 107.413 51.6268 107.4C51.6001 107.52 51.5135 107.667 51.3668 107.84C51.2201 108 51.0801 108.08 50.9468 108.08C50.9735 108.187 50.9868 108.273 50.9868 108.34C50.9868 108.513 50.9268 108.767 50.8068 109.1C50.9135 109.247 50.9668 109.4 50.9668 109.56C50.9668 109.707 50.9201 109.86 50.8268 110.02C50.8535 110.073 50.8668 110.16 50.8668 110.28C50.8668 110.4 50.8401 110.54 50.7868 110.7C50.8135 110.793 50.8268 110.9 50.8268 111.02C50.8268 111.153 50.7735 111.307 50.6668 111.48C50.8135 111.547 50.8868 111.74 50.8868 112.06C50.8868 112.22 50.8668 112.387 50.8268 112.56C50.7868 112.733 50.7335 112.873 50.6668 112.98C50.7468 113.113 50.7868 113.267 50.7868 113.44C50.7868 113.613 50.7201 113.76 50.5868 113.88ZM71.5777 109.78C71.6311 109.633 71.7377 109.513 71.8977 109.42C72.0577 109.313 72.2244 109.26 72.3977 109.26C72.4511 109.26 72.5311 109.273 72.6377 109.3C73.0244 109.407 73.2177 109.633 73.2177 109.98C73.2177 110.287 73.0844 110.6 72.8177 110.92C72.8444 111.027 72.8577 111.12 72.8577 111.2C72.8577 111.373 72.8177 111.547 72.7377 111.72C72.6711 111.893 72.5711 112.053 72.4377 112.2C72.3977 112.413 72.3377 112.6 72.2577 112.76C72.1911 112.907 72.0844 113.08 71.9377 113.28C71.7777 113.493 71.6177 113.647 71.4577 113.74C71.3111 113.82 71.1044 113.9 70.8377 113.98C70.7711 114.167 70.6644 114.34 70.5177 114.5C70.3711 114.647 70.1911 114.72 69.9777 114.72C69.8711 114.72 69.7577 114.7 69.6377 114.66C69.5444 114.767 69.4111 114.853 69.2377 114.92C69.0777 114.973 68.9111 115 68.7377 115C68.5111 115 68.3311 114.953 68.1977 114.86C68.0377 114.927 67.8311 114.96 67.5777 114.96C67.2444 114.96 66.9244 114.907 66.6177 114.8C66.3111 114.693 66.0711 114.527 65.8977 114.3C65.5777 114.327 65.3111 114.253 65.0977 114.08C64.9111 113.973 64.7911 113.853 64.7377 113.72C64.2444 113.48 64.0044 113.04 64.0177 112.4C63.7777 112.24 63.5977 112.06 63.4777 111.86C63.3577 111.647 63.2644 111.38 63.1977 111.06C63.0911 110.953 63.0377 110.813 63.0377 110.64C63.0377 110.56 63.0444 110.493 63.0577 110.44C62.9377 110.32 62.8777 110.16 62.8777 109.96C62.8777 109.867 62.8977 109.773 62.9377 109.68C62.7511 109.48 62.6577 109.193 62.6577 108.82C62.6577 108.487 62.7311 108.227 62.8777 108.04C62.7844 107.907 62.7377 107.76 62.7377 107.6C62.7377 107.48 62.7711 107.353 62.8377 107.22C62.7711 107.14 62.7377 106.98 62.7377 106.74C62.7377 106.473 62.7777 106.207 62.8577 105.94C62.9377 105.66 63.0377 105.473 63.1577 105.38C63.1177 105.3 63.0977 105.187 63.0977 105.04C63.0977 104.827 63.1311 104.627 63.1977 104.44C63.2777 104.253 63.3844 104.153 63.5177 104.14C63.5177 103.86 63.6311 103.64 63.8577 103.48C63.8444 103.293 63.9111 103.087 64.0577 102.86C64.2177 102.633 64.3977 102.48 64.5977 102.4C64.6377 102.107 64.7577 101.86 64.9577 101.66C65.1577 101.46 65.3777 101.347 65.6177 101.32C65.6844 101.2 65.8044 101.1 65.9777 101.02C66.1644 100.927 66.3444 100.88 66.5177 100.88C66.6511 100.88 66.7644 100.907 66.8577 100.96C67.0577 100.773 67.2844 100.68 67.5377 100.68C67.7511 100.68 67.8911 100.733 67.9577 100.84C68.0644 100.813 68.1577 100.8 68.2377 100.8C68.4777 100.8 68.6577 100.887 68.7777 101.06C68.8311 101.02 68.9111 101 69.0177 101C69.2044 101 69.4111 101.053 69.6377 101.16C69.8777 101.253 70.0177 101.347 70.0577 101.44C70.3377 101.493 70.5911 101.633 70.8177 101.86C71.0444 102.073 71.1377 102.293 71.0977 102.52C71.2844 102.613 71.4177 102.747 71.4977 102.92C71.5777 103.08 71.6044 103.233 71.5777 103.38C71.6977 103.473 71.7777 103.593 71.8177 103.74C71.8577 103.873 71.8844 103.953 71.8977 103.98C72.1644 104.207 72.2977 104.493 72.2977 104.84C72.2977 104.907 72.2844 104.993 72.2577 105.1C72.2711 105.153 72.2777 105.22 72.2777 105.3C72.2777 105.527 72.1911 105.72 72.0177 105.88C71.8577 106.027 71.6711 106.1 71.4577 106.1C71.2444 106.1 71.0577 106.02 70.8977 105.86C70.5244 105.46 70.3177 105.06 70.2777 104.66C70.1177 104.607 69.9911 104.507 69.8977 104.36C69.8044 104.2 69.7644 104.027 69.7777 103.84C69.6577 103.76 69.5644 103.66 69.4977 103.54C69.4444 103.407 69.4244 103.273 69.4377 103.14C69.1977 103.14 69.0111 103.067 68.8777 102.92C68.8377 102.933 68.7644 102.94 68.6577 102.94C68.5111 102.94 68.3511 102.92 68.1777 102.88C68.0044 102.827 67.8711 102.767 67.7777 102.7C67.7244 102.713 67.6444 102.72 67.5377 102.72C67.3911 102.72 67.2911 102.707 67.2377 102.68C67.0644 102.787 66.8977 102.84 66.7377 102.84C66.6844 102.84 66.5911 102.827 66.4577 102.8C66.3111 102.92 66.1711 102.987 66.0377 103C66.0111 103.213 65.9511 103.407 65.8577 103.58C65.7777 103.753 65.6711 103.853 65.5377 103.88C65.5644 104.04 65.5377 104.2 65.4577 104.36C65.3777 104.507 65.2644 104.627 65.1177 104.72C65.1044 104.827 65.0711 104.933 65.0177 105.04C64.9644 105.133 64.8977 105.207 64.8177 105.26C64.8311 105.327 64.8444 105.407 64.8577 105.5C64.8711 105.58 64.8777 105.68 64.8777 105.8C64.8777 106.08 64.7577 106.3 64.5177 106.46C64.5177 106.633 64.4844 106.773 64.4177 106.88C64.4844 107.013 64.5177 107.147 64.5177 107.28C64.5177 107.413 64.4911 107.533 64.4377 107.64C64.5177 107.773 64.5577 107.9 64.5577 108.02C64.5577 108.14 64.5244 108.28 64.4577 108.44C64.3911 108.613 64.3511 108.773 64.3377 108.92C64.4577 108.987 64.5511 109.08 64.6177 109.2C64.6844 109.32 64.7177 109.447 64.7177 109.58C64.7177 109.727 64.6777 109.86 64.5977 109.98C64.7044 110.033 64.7844 110.127 64.8377 110.26C64.8911 110.393 64.9177 110.533 64.9177 110.68C64.9177 110.827 64.8911 110.947 64.8377 111.04C65.1311 111.2 65.3311 111.367 65.4377 111.54C65.5577 111.7 65.6444 111.96 65.6977 112.32C65.7911 112.36 65.8977 112.427 66.0177 112.52C66.1511 112.613 66.2377 112.693 66.2777 112.76C66.5044 112.747 66.7377 112.8 66.9777 112.92C67.2311 113.027 67.4044 113.173 67.4977 113.36C67.5777 113.293 67.7044 113.24 67.8777 113.2C68.0644 113.147 68.2444 113.12 68.4177 113.12C68.6044 113.12 68.7311 113.147 68.7977 113.2C68.9844 112.973 69.2111 112.86 69.4777 112.86C69.5577 112.86 69.6177 112.867 69.6577 112.88C69.8711 112.707 70.0377 112.587 70.1577 112.52C70.2777 112.44 70.4177 112.38 70.5777 112.34C70.5911 112.14 70.6711 111.947 70.8177 111.76C70.8311 111.653 70.8711 111.527 70.9377 111.38C71.0044 111.22 71.0711 111.1 71.1377 111.02C71.1244 110.98 71.1177 110.913 71.1177 110.82C71.1177 110.647 71.1644 110.46 71.2577 110.26C71.3511 110.047 71.4577 109.887 71.5777 109.78ZM75.1215 107.24C75.0148 107.067 74.9615 106.9 74.9615 106.74C74.9615 106.5 75.0415 106.3 75.2015 106.14C75.2415 105.94 75.3348 105.753 75.4815 105.58C75.6282 105.393 75.7882 105.253 75.9615 105.16C76.1482 105.053 76.2948 105.013 76.4015 105.04C76.4948 104.893 76.6815 104.76 76.9615 104.64C77.2415 104.507 77.5015 104.44 77.7415 104.44C77.7948 104.44 77.8748 104.453 77.9815 104.48C78.1282 104.32 78.3215 104.24 78.5615 104.24C78.7482 104.24 78.8815 104.293 78.9615 104.4C79.1348 104.28 79.3615 104.22 79.6415 104.22C79.9748 104.22 80.2682 104.3 80.5215 104.46C80.7882 104.62 80.9415 104.833 80.9815 105.1C81.2215 105.18 81.4015 105.307 81.5215 105.48C81.6548 105.64 81.7348 105.867 81.7615 106.16C81.9348 106.333 82.0615 106.54 82.1415 106.78C82.2215 107.007 82.2615 107.24 82.2615 107.48C82.2615 107.787 82.2082 108.033 82.1015 108.22C82.1948 108.353 82.2748 108.553 82.3415 108.82C82.4082 109.087 82.4415 109.347 82.4415 109.6C82.4415 109.707 82.4282 109.84 82.4015 110C82.4948 110.2 82.5415 110.333 82.5415 110.4C82.5415 110.44 82.5215 110.533 82.4815 110.68C82.4948 110.733 82.5082 110.8 82.5215 110.88C82.5348 110.947 82.5415 111.033 82.5415 111.14C82.5415 111.34 82.4682 111.52 82.3215 111.68C82.3748 111.827 82.4015 112.007 82.4015 112.22C82.4015 112.5 82.3348 112.727 82.2015 112.9C82.2282 112.953 82.2415 113.04 82.2415 113.16C82.2415 113.44 82.1282 113.673 81.9015 113.86C81.8482 114.047 81.7482 114.193 81.6015 114.3C81.4548 114.393 81.2948 114.44 81.1215 114.44C80.9482 114.44 80.8082 114.387 80.7015 114.28C80.3548 114.427 80.0748 114.5 79.8615 114.5C79.7548 114.5 79.6748 114.493 79.6215 114.48C79.2748 114.587 78.9815 114.64 78.7415 114.64C78.5682 114.64 78.3282 114.607 78.0215 114.54C77.8348 114.647 77.6548 114.7 77.4815 114.7C77.3215 114.7 77.1748 114.653 77.0415 114.56C76.9748 114.573 76.8748 114.58 76.7415 114.58C76.2215 114.58 75.8215 114.347 75.5415 113.88C75.0348 113.587 74.7815 113.147 74.7815 112.56C74.7815 112.413 74.7882 112.3 74.8015 112.22C74.6815 112.14 74.6215 111.973 74.6215 111.72C74.6215 111.547 74.6548 111.393 74.7215 111.26C74.6682 111.02 74.6415 110.867 74.6415 110.8C74.6415 110.413 74.8282 110.067 75.2015 109.76C75.3482 109.453 75.5148 109.247 75.7015 109.14C75.9015 109.033 76.1482 108.953 76.4415 108.9C76.5215 108.673 76.7082 108.52 77.0015 108.44C77.2948 108.36 77.5815 108.333 77.8615 108.36C77.9415 108.307 78.0548 108.26 78.2015 108.22C78.3482 108.167 78.4948 108.14 78.6415 108.14C78.8015 108.14 78.9415 108.167 79.0615 108.22C79.0882 108.193 79.1548 108.18 79.2615 108.18C79.3415 108.18 79.4215 108.187 79.5015 108.2C79.5815 108.213 79.6348 108.233 79.6615 108.26C79.8482 108.02 80.0682 107.9 80.3215 107.9C80.4015 107.9 80.4815 107.92 80.5615 107.96V107.9C80.5615 107.673 80.6082 107.513 80.7015 107.42C80.5682 107.38 80.4215 107.267 80.2615 107.08C80.1148 106.88 80.0282 106.7 80.0015 106.54C79.7882 106.447 79.6415 106.293 79.5615 106.08C79.4015 106.2 79.2148 106.26 79.0015 106.26C78.8548 106.26 78.7148 106.22 78.5815 106.14C78.3548 106.207 78.2082 106.233 78.1415 106.22C77.9548 106.353 77.7482 106.42 77.5215 106.42C77.3215 106.687 77.0882 106.807 76.8215 106.78C76.7015 106.993 76.5348 107.18 76.3215 107.34C76.1215 107.5 75.9148 107.58 75.7015 107.58C75.4615 107.58 75.2682 107.467 75.1215 107.24ZM76.2215 111.7C76.3815 111.86 76.4615 112.013 76.4615 112.16C76.4615 112.267 76.4348 112.4 76.3815 112.56C76.4348 112.56 76.5082 112.593 76.6015 112.66C76.7082 112.713 76.7682 112.773 76.7815 112.84C76.8882 112.8 77.0215 112.78 77.1815 112.78C77.4748 112.78 77.6682 112.847 77.7615 112.98C77.9082 112.927 78.0615 112.9 78.2215 112.9C78.4748 112.9 78.6748 112.973 78.8215 113.12C78.9282 113.013 79.1015 112.927 79.3415 112.86C79.5948 112.793 79.8215 112.76 80.0215 112.76C80.1415 112.52 80.3548 112.38 80.6615 112.34C80.6882 112.247 80.7615 112.127 80.8815 111.98C80.8282 111.9 80.7815 111.793 80.7415 111.66C80.7015 111.527 80.6815 111.393 80.6815 111.26C80.6815 110.98 80.7482 110.773 80.8815 110.64C80.7348 110.453 80.6615 110.233 80.6615 109.98C80.6615 109.807 80.6882 109.66 80.7415 109.54C80.6348 109.607 80.5148 109.64 80.3815 109.64C80.2615 109.64 80.1615 109.593 80.0815 109.5C79.9615 109.62 79.7948 109.68 79.5815 109.68C79.4482 109.68 79.3148 109.647 79.1815 109.58C79.0348 109.727 78.8548 109.8 78.6415 109.8C78.5748 109.8 78.4748 109.773 78.3415 109.72C78.1415 109.92 77.9615 109.98 77.8015 109.9C77.7215 110.087 77.6148 110.213 77.4815 110.28C77.3615 110.347 77.1882 110.38 76.9615 110.38C76.9082 110.527 76.8148 110.647 76.6815 110.74C76.5615 110.833 76.4348 110.867 76.3015 110.84C76.3682 110.933 76.4015 111.04 76.4015 111.16C76.4015 111.36 76.3415 111.54 76.2215 111.7ZM86.0184 114.06C86.0717 114.353 86.0117 114.587 85.8384 114.76C85.6784 114.92 85.4784 115 85.2384 115C85.025 115 84.8384 114.933 84.6784 114.8C84.5184 114.653 84.4384 114.453 84.4384 114.2C84.4384 114.04 84.4784 113.86 84.5584 113.66C84.4784 113.473 84.4384 113.28 84.4384 113.08C84.4384 112.92 84.4717 112.787 84.5384 112.68C84.4584 112.627 84.3984 112.547 84.3584 112.44C84.3184 112.333 84.2984 112.213 84.2984 112.08C84.2984 111.947 84.325 111.8 84.3784 111.64C84.2584 111.493 84.1984 111.32 84.1984 111.12C84.1984 110.867 84.2917 110.66 84.4784 110.5C84.465 110.46 84.4584 110.393 84.4584 110.3C84.4584 110.167 84.4717 110.073 84.4984 110.02C84.3517 109.833 84.2784 109.567 84.2784 109.22C84.2784 108.98 84.325 108.793 84.4184 108.66C84.325 108.58 84.245 108.473 84.1784 108.34C84.1117 108.193 84.0784 108.047 84.0784 107.9C84.0784 107.74 84.125 107.587 84.2184 107.44C84.1517 107.28 84.1184 107.14 84.1184 107.02C84.1184 106.82 84.1784 106.633 84.2984 106.46C84.1384 106.3 84.0584 106.133 84.0584 105.96C84.0584 105.827 84.105 105.647 84.1984 105.42C84.105 105.233 84.0584 105.033 84.0584 104.82C84.0584 104.54 84.1584 104.367 84.3584 104.3C84.3717 104.113 84.4384 103.96 84.5584 103.84C84.6784 103.72 84.825 103.66 84.9984 103.66C85.1984 103.66 85.3717 103.76 85.5184 103.96C85.6784 104.147 85.7584 104.42 85.7584 104.78C85.7584 104.927 85.7517 105.047 85.7384 105.14C85.7917 105.113 85.845 105.073 85.8984 105.02C85.9517 104.953 86.0184 104.907 86.0984 104.88C86.1784 104.853 86.2984 104.84 86.4584 104.84C86.485 104.773 86.5717 104.707 86.7184 104.64C86.8784 104.573 87.0317 104.54 87.1784 104.54C87.285 104.54 87.3584 104.553 87.3984 104.58C87.505 104.527 87.6117 104.5 87.7184 104.5C87.8784 104.5 88.0517 104.613 88.2384 104.84C88.5584 104.813 88.7917 104.887 88.9384 105.06C89.1517 105.047 89.3384 105.073 89.4984 105.14C89.6584 105.207 89.785 105.347 89.8784 105.56C90.1317 105.72 90.2584 105.933 90.2584 106.2C90.2584 106.427 90.1584 106.64 89.9584 106.84C89.7717 107.027 89.565 107.12 89.3384 107.12C89.085 107.12 88.8717 106.987 88.6984 106.72C88.5517 106.72 88.4384 106.707 88.3584 106.68C88.2784 106.653 88.1984 106.593 88.1184 106.5C88.0384 106.527 87.9717 106.54 87.9184 106.54C87.7984 106.54 87.6717 106.507 87.5384 106.44C87.3517 106.56 87.1517 106.613 86.9384 106.6C86.8584 106.787 86.6517 106.88 86.3184 106.88C86.3317 106.92 86.3384 106.987 86.3384 107.08C86.3384 107.253 86.2984 107.427 86.2184 107.6C86.1517 107.76 86.065 107.88 85.9584 107.96C86.065 108.213 86.1184 108.467 86.1184 108.72C86.1184 108.947 86.065 109.12 85.9584 109.24C85.9984 109.293 86.0384 109.36 86.0784 109.44C86.1317 109.52 86.1717 109.593 86.1984 109.66C86.225 109.767 86.2384 109.847 86.2384 109.9C86.2384 109.993 86.205 110.12 86.1384 110.28C86.205 110.44 86.2384 110.56 86.2384 110.64C86.2384 110.747 86.1917 110.893 86.0984 111.08C86.1784 111.213 86.2184 111.36 86.2184 111.52C86.2184 111.707 86.1717 111.867 86.0784 112C86.1717 112.213 86.2184 112.433 86.2184 112.66C86.2184 112.833 86.1784 112.993 86.0984 113.14C86.165 113.273 86.1984 113.407 86.1984 113.54C86.1984 113.727 86.1384 113.9 86.0184 114.06ZM96.8962 113.82C96.8695 113.94 96.7695 114.04 96.5962 114.12C96.4228 114.2 96.2362 114.24 96.0362 114.24C95.9428 114.24 95.8762 114.233 95.8362 114.22C95.7695 114.327 95.6295 114.433 95.4162 114.54C95.2028 114.647 95.0162 114.7 94.8562 114.7C94.7762 114.7 94.7028 114.68 94.6362 114.64C94.5028 114.667 94.3895 114.68 94.2962 114.68C94.1095 114.68 93.9228 114.647 93.7362 114.58C93.5628 114.513 93.4295 114.427 93.3362 114.32C93.1095 114.347 92.8962 114.32 92.6962 114.24C92.5095 114.147 92.4028 114.027 92.3762 113.88C92.2295 113.907 92.0628 113.847 91.8762 113.7C91.7028 113.553 91.6095 113.353 91.5962 113.1C91.3962 112.993 91.2495 112.833 91.1562 112.62C91.0628 112.407 91.0162 112.18 91.0162 111.94C91.0162 111.767 91.0362 111.633 91.0762 111.54C90.9695 111.447 90.8828 111.253 90.8162 110.96C90.7495 110.653 90.7162 110.333 90.7162 110C90.7162 109.6 90.7628 109.307 90.8562 109.12C90.7895 108.987 90.7562 108.833 90.7562 108.66C90.7562 108.513 90.7762 108.373 90.8162 108.24C90.8695 108.107 90.9428 108 91.0362 107.92C90.9962 107.853 90.9762 107.793 90.9762 107.74C90.9762 107.647 91.0095 107.547 91.0762 107.44C91.1428 107.333 91.2162 107.253 91.2962 107.2C91.2828 106.987 91.3362 106.793 91.4562 106.62C91.5895 106.433 91.7228 106.32 91.8562 106.28C91.8428 106.147 91.8895 105.987 91.9962 105.8C92.1028 105.613 92.2428 105.46 92.4162 105.34C92.6028 105.22 92.7895 105.167 92.9762 105.18C93.2428 104.807 93.6095 104.62 94.0762 104.62C94.2762 104.62 94.4295 104.647 94.5362 104.7C94.6828 104.633 94.8628 104.6 95.0762 104.6C95.2895 104.6 95.5228 104.653 95.7762 104.76C95.8562 104.72 95.9562 104.7 96.0762 104.7C96.2095 104.7 96.3362 104.727 96.4562 104.78C96.5895 104.82 96.6762 104.88 96.7162 104.96C96.7028 104.907 96.6962 104.827 96.6962 104.72C96.6962 104.507 96.7495 104.32 96.8562 104.16C96.7628 104 96.7162 103.84 96.7162 103.68C96.7162 103.6 96.7228 103.54 96.7362 103.5C96.7228 103.433 96.6962 103.347 96.6562 103.24C96.6162 103.12 96.5962 103.02 96.5962 102.94C96.5962 102.833 96.6228 102.727 96.6762 102.62C96.6095 102.487 96.5762 102.353 96.5762 102.22C96.5762 102.073 96.6162 101.933 96.6962 101.8C96.6028 101.613 96.5562 101.42 96.5562 101.22C96.5562 100.953 96.6295 100.713 96.7762 100.5C96.9362 100.287 97.1495 100.18 97.4162 100.18C97.6428 100.18 97.8362 100.267 97.9962 100.44C98.1695 100.6 98.2562 100.787 98.2562 101C98.2562 101.08 98.2495 101.14 98.2362 101.18C98.4362 101.34 98.5362 101.56 98.5362 101.84C98.5362 101.987 98.4895 102.14 98.3962 102.3C98.4362 102.393 98.4562 102.493 98.4562 102.6C98.4562 102.747 98.4228 102.887 98.3562 103.02C98.4228 103.153 98.4562 103.293 98.4562 103.44C98.4562 103.627 98.4095 103.787 98.3162 103.92C98.4495 104.08 98.5162 104.233 98.5162 104.38C98.5162 104.487 98.4762 104.6 98.3962 104.72C98.4362 104.8 98.4562 104.9 98.4562 105.02C98.4562 105.113 98.4362 105.213 98.3962 105.32C98.5028 105.467 98.5562 105.627 98.5562 105.8C98.5562 105.933 98.5228 106.067 98.4562 106.2C98.5362 106.333 98.5762 106.493 98.5762 106.68C98.5762 106.987 98.5028 107.2 98.3562 107.32C98.4895 107.48 98.5562 107.72 98.5562 108.04C98.5562 108.227 98.5295 108.413 98.4762 108.6C98.4362 108.787 98.3962 108.92 98.3562 109C98.4895 109.2 98.5562 109.453 98.5562 109.76C98.5562 109.907 98.5228 110.047 98.4562 110.18C98.6028 110.327 98.6762 110.547 98.6762 110.84C98.6762 111.16 98.6095 111.42 98.4762 111.62C98.6095 111.793 98.6762 112.04 98.6762 112.36C98.6762 112.573 98.6428 112.767 98.5762 112.94C98.5228 113.1 98.4495 113.207 98.3562 113.26C98.3695 113.353 98.4028 113.493 98.4562 113.68C98.5228 113.973 98.5562 114.16 98.5562 114.24C98.5562 114.453 98.4895 114.627 98.3562 114.76C98.1962 114.92 98.0095 115 97.7962 115C97.6228 115 97.4628 114.94 97.3162 114.82C97.1828 114.687 97.1028 114.513 97.0762 114.3C97.0095 114.233 96.9628 114.147 96.9362 114.04C96.9095 113.92 96.8962 113.847 96.8962 113.82ZM94.3962 113.04C94.4362 112.947 94.5562 112.9 94.7562 112.9C94.8495 112.9 94.9295 112.907 94.9962 112.92C95.0628 112.933 95.1162 112.94 95.1562 112.94C95.1695 112.847 95.2495 112.767 95.3962 112.7C95.5562 112.62 95.7095 112.58 95.8562 112.58C95.9495 112.58 96.0295 112.6 96.0962 112.64C96.0828 112.507 96.1095 112.4 96.1762 112.32C96.2428 112.24 96.3295 112.167 96.4362 112.1C96.5562 112.02 96.6428 111.96 96.6962 111.92C96.6695 111.867 96.6562 111.747 96.6562 111.56C96.6562 111.16 96.7028 110.913 96.7962 110.82C96.7028 110.727 96.6562 110.54 96.6562 110.26C96.6562 109.94 96.7028 109.66 96.7962 109.42C96.7162 109.247 96.6762 108.953 96.6762 108.54C96.6762 108.14 96.7028 107.873 96.7562 107.74C96.6362 107.5 96.5762 107.227 96.5762 106.92C96.5762 106.68 96.6028 106.507 96.6562 106.4C96.5762 106.453 96.4562 106.46 96.2962 106.42C96.1495 106.367 96.0295 106.293 95.9362 106.2C95.8828 106.28 95.7762 106.32 95.6162 106.32C95.5095 106.32 95.4028 106.307 95.2962 106.28C95.1895 106.24 95.1162 106.2 95.0762 106.16C94.8628 106.253 94.6562 106.3 94.4562 106.3C94.4028 106.3 94.3228 106.287 94.2162 106.26C94.0428 106.447 93.9095 106.58 93.8162 106.66C93.7228 106.74 93.5962 106.787 93.4362 106.8C93.3962 106.893 93.3562 107.007 93.3162 107.14C93.2762 107.26 93.2295 107.36 93.1762 107.44C93.1228 107.52 93.0295 107.587 92.8962 107.64C92.8695 107.813 92.8028 107.953 92.6962 108.06C92.7095 108.113 92.7162 108.187 92.7162 108.28C92.7162 108.413 92.6828 108.56 92.6162 108.72C92.6562 108.813 92.6762 109.02 92.6762 109.34C92.6762 109.953 92.6228 110.32 92.5162 110.44C92.5295 110.493 92.5762 110.62 92.6562 110.82C92.7362 111.02 92.7762 111.213 92.7762 111.4C92.7762 111.547 92.7495 111.68 92.6962 111.8C92.9628 111.907 93.1295 112.093 93.1962 112.36C93.3295 112.4 93.4562 112.487 93.5762 112.62C93.8962 112.607 94.1695 112.747 94.3962 113.04ZM115.877 112.84C115.877 112.84 115.99 112.887 116.217 112.98C116.457 113.073 116.55 113.387 116.497 113.92C116.55 114.027 116.577 114.147 116.577 114.28C116.577 114.493 116.49 114.667 116.317 114.8C116.143 114.933 115.943 115 115.717 115C115.517 115 115.343 114.94 115.197 114.82C115.063 114.687 114.997 114.5 114.997 114.26C114.85 114.233 114.697 114.12 114.537 113.92C114.39 113.707 114.317 113.493 114.317 113.28C114.317 113.227 114.33 113.147 114.357 113.04C114.223 112.973 114.103 112.84 113.997 112.64C113.903 112.427 113.837 112.207 113.797 111.98C113.757 111.753 113.743 111.593 113.757 111.5C113.583 111.42 113.443 111.227 113.337 110.92C113.243 110.6 113.21 110.327 113.237 110.1C113.143 110.14 113.03 110.16 112.897 110.16C112.63 110.16 112.383 110.08 112.157 109.92C111.983 110.093 111.723 110.18 111.377 110.18C111.057 110.18 110.83 110.1 110.697 109.94C110.523 110.087 110.337 110.16 110.137 110.16C109.977 110.16 109.85 110.127 109.757 110.06C109.663 110.127 109.523 110.16 109.337 110.16C109.177 110.16 109.017 110.133 108.857 110.08C108.697 110.027 108.57 109.953 108.477 109.86C108.463 109.86 108.43 109.873 108.377 109.9C108.457 110.153 108.497 110.38 108.497 110.58C108.497 110.887 108.343 111.153 108.037 111.38C108.09 111.487 108.117 111.613 108.117 111.76C108.117 112.053 108.017 112.333 107.817 112.6C107.617 112.867 107.423 113.013 107.237 113.04C107.29 113.16 107.317 113.3 107.317 113.46C107.317 113.82 107.197 114.153 106.957 114.46C106.717 114.753 106.423 114.9 106.077 114.9C105.983 114.9 105.91 114.893 105.857 114.88C105.683 114.88 105.55 114.827 105.457 114.72C105.363 114.613 105.317 114.473 105.317 114.3C105.317 114.18 105.35 114.04 105.417 113.88C105.403 113.827 105.397 113.747 105.397 113.64C105.397 113.373 105.53 113.14 105.797 112.94C105.783 112.9 105.777 112.84 105.777 112.76C105.777 112.56 105.823 112.36 105.917 112.16C106.023 111.947 106.157 111.807 106.317 111.74C106.303 111.713 106.297 111.653 106.297 111.56C106.297 111.333 106.35 111.073 106.457 110.78C106.563 110.473 106.683 110.3 106.817 110.26C106.79 109.673 106.983 109.08 107.397 108.48C107.397 108.173 107.443 107.887 107.537 107.62C107.63 107.34 107.797 107.14 108.037 107.02C108.05 106.767 108.11 106.513 108.217 106.26C108.323 106.007 108.443 105.793 108.577 105.62C108.537 105.473 108.517 105.34 108.517 105.22C108.517 105.033 108.55 104.887 108.617 104.78C108.697 104.66 108.783 104.587 108.877 104.56C108.863 104.507 108.857 104.427 108.857 104.32C108.857 104.027 108.963 103.793 109.177 103.62L109.157 103.5C109.157 103.3 109.237 103.12 109.397 102.96C109.383 102.907 109.377 102.833 109.377 102.74C109.377 102.5 109.437 102.26 109.557 102.02C109.677 101.78 109.81 101.62 109.957 101.54C110.197 101.207 110.45 101.04 110.717 101.04C110.837 101.04 110.99 101.08 111.177 101.16C111.563 101.173 111.843 101.473 112.017 102.06C112.137 102.207 112.223 102.38 112.277 102.58C112.33 102.767 112.35 102.94 112.337 103.1C112.457 103.18 112.543 103.287 112.597 103.42C112.663 103.553 112.69 103.693 112.677 103.84C112.81 103.96 112.923 104.147 113.017 104.4C113.123 104.653 113.177 104.893 113.177 105.12C113.177 105.227 113.17 105.3 113.157 105.34C113.25 105.433 113.33 105.567 113.397 105.74C113.477 105.913 113.517 106.073 113.517 106.22C113.517 106.3 113.51 106.36 113.497 106.4C113.67 106.52 113.81 106.707 113.917 106.96C114.037 107.213 114.117 107.467 114.157 107.72C114.21 107.96 114.223 108.127 114.197 108.22C114.223 108.26 114.297 108.36 114.417 108.52C114.537 108.667 114.63 108.82 114.697 108.98C114.763 109.127 114.797 109.267 114.797 109.4C114.797 109.52 114.783 109.607 114.757 109.66C114.81 109.727 114.87 109.807 114.937 109.9C115.003 109.98 115.057 110.053 115.097 110.12C115.137 110.187 115.157 110.267 115.157 110.36C115.157 110.453 115.15 110.52 115.137 110.56C115.243 110.667 115.337 110.807 115.417 110.98C115.497 111.153 115.537 111.32 115.537 111.48C115.537 111.613 115.51 111.713 115.457 111.78C115.603 111.887 115.717 112.04 115.797 112.24C115.877 112.44 115.903 112.64 115.877 112.84ZM112.197 108.5C112.223 108.42 112.283 108.373 112.377 108.36C112.47 108.333 112.55 108.34 112.617 108.38C112.59 108.3 112.577 108.24 112.577 108.2C112.577 108.093 112.603 108.013 112.657 107.96C112.537 107.867 112.437 107.747 112.357 107.6C112.29 107.453 112.263 107.307 112.277 107.16C112.183 107.133 112.097 107.067 112.017 106.96C111.95 106.84 111.917 106.713 111.917 106.58C111.917 106.54 111.93 106.467 111.957 106.36C111.677 106.187 111.537 105.927 111.537 105.58C111.537 105.447 111.557 105.293 111.597 105.12C111.583 105.107 111.55 105.08 111.497 105.04C111.443 104.987 111.423 104.907 111.437 104.8C111.17 104.72 111.043 104.507 111.057 104.16C110.95 104.107 110.863 104.007 110.797 103.86C110.823 104.167 110.703 104.407 110.437 104.58C110.45 104.727 110.423 104.893 110.357 105.08C110.29 105.267 110.21 105.407 110.117 105.5C110.13 105.553 110.137 105.64 110.137 105.76C110.137 106.067 110.01 106.473 109.757 106.98C109.69 107.127 109.637 107.26 109.597 107.38C109.543 107.513 109.483 107.647 109.417 107.78C109.363 107.913 109.29 108.013 109.197 108.08C109.197 108.213 109.17 108.333 109.117 108.44L109.277 108.42C109.41 108.42 109.51 108.453 109.577 108.52C109.617 108.453 109.697 108.42 109.817 108.42C109.897 108.42 109.957 108.44 109.997 108.48C110.157 108.36 110.357 108.3 110.597 108.3C110.77 108.3 110.93 108.327 111.077 108.38C111.223 108.433 111.343 108.507 111.437 108.6C111.57 108.453 111.71 108.38 111.857 108.38C111.95 108.38 112.063 108.42 112.197 108.5ZM125.445 107.88C125.605 108.013 125.685 108.227 125.685 108.52C125.685 108.587 125.672 108.673 125.645 108.78C125.712 108.807 125.765 108.933 125.805 109.16C125.845 109.373 125.865 109.613 125.865 109.88C125.865 110.28 125.818 110.533 125.725 110.64C125.765 110.733 125.785 110.84 125.785 110.96C125.785 111.24 125.665 111.473 125.425 111.66C125.465 111.74 125.485 111.847 125.485 111.98C125.485 112.193 125.438 112.433 125.345 112.7C125.252 112.953 125.145 113.133 125.025 113.24C125.025 113.453 124.905 113.693 124.665 113.96C124.438 114.213 124.218 114.353 124.005 114.38C123.912 114.527 123.765 114.647 123.565 114.74C123.365 114.833 123.158 114.88 122.945 114.88C122.772 114.88 122.625 114.853 122.505 114.8C122.372 114.88 122.198 114.92 121.985 114.92C121.812 114.92 121.638 114.893 121.465 114.84C121.305 114.787 121.185 114.72 121.105 114.64C120.998 114.667 120.905 114.68 120.825 114.68C120.558 114.68 120.365 114.62 120.245 114.5C120.232 114.567 120.218 114.667 120.205 114.8C120.192 114.92 120.152 115.013 120.085 115.08C120.165 115.2 120.205 115.353 120.205 115.54C120.205 115.833 120.132 116.053 119.985 116.2C120.065 116.267 120.132 116.367 120.185 116.5C120.238 116.647 120.265 116.793 120.265 116.94C120.265 117.167 120.198 117.34 120.065 117.46C120.132 117.66 120.165 117.867 120.165 118.08C120.165 118.387 120.085 118.62 119.925 118.78C119.765 118.953 119.578 119.04 119.365 119.04C119.165 119.04 118.978 118.973 118.805 118.84C118.645 118.707 118.532 118.513 118.465 118.26C118.425 118.207 118.392 118.113 118.365 117.98C118.338 117.86 118.325 117.727 118.325 117.58C118.325 117.26 118.378 117.08 118.485 117.04C118.352 116.787 118.285 116.487 118.285 116.14C118.285 115.847 118.338 115.56 118.445 115.28C118.325 115.16 118.265 114.96 118.265 114.68C118.265 114.44 118.318 114.253 118.425 114.12C118.398 114.027 118.358 113.913 118.305 113.78C118.252 113.633 118.225 113.507 118.225 113.4C118.225 113.307 118.258 113.193 118.325 113.06C118.245 112.9 118.205 112.76 118.205 112.64C118.205 112.52 118.245 112.373 118.325 112.2C118.405 112.027 118.458 111.907 118.485 111.84C118.365 111.653 118.305 111.36 118.305 110.96C118.305 110.6 118.352 110.353 118.445 110.22C118.258 109.82 118.165 109.507 118.165 109.28C118.165 109.053 118.225 108.873 118.345 108.74C118.292 108.633 118.265 108.513 118.265 108.38C118.265 108.247 118.305 108.12 118.385 108C118.292 107.853 118.245 107.64 118.245 107.36C118.245 107 118.312 106.747 118.445 106.6C118.298 106.227 118.225 105.86 118.225 105.5C118.225 105.193 118.278 104.967 118.385 104.82C118.372 104.78 118.365 104.72 118.365 104.64C118.365 104.413 118.458 104.227 118.645 104.08C118.845 103.92 119.058 103.84 119.285 103.84C119.458 103.84 119.605 103.887 119.725 103.98C119.845 104.073 119.932 104.213 119.985 104.4L120.085 104.46C120.178 104.327 120.305 104.233 120.465 104.18C120.625 104.113 120.798 104.093 120.985 104.12C121.105 103.96 121.332 103.88 121.665 103.88C121.878 103.88 122.072 103.9 122.245 103.94C122.325 103.913 122.398 103.9 122.465 103.9C122.598 103.9 122.732 103.933 122.865 104C122.998 104.053 123.085 104.113 123.125 104.18C123.298 104.18 123.425 104.193 123.505 104.22C123.598 104.247 123.698 104.327 123.805 104.46C123.912 104.46 124.005 104.493 124.085 104.56C124.178 104.613 124.238 104.68 124.265 104.76C124.385 104.773 124.465 104.807 124.505 104.86C124.558 104.913 124.605 105 124.645 105.12C124.912 105.373 125.058 105.793 125.085 106.38C125.232 106.46 125.338 106.593 125.405 106.78C125.485 106.967 125.525 107.167 125.525 107.38C125.525 107.553 125.498 107.72 125.445 107.88ZM122.485 113.18C122.552 113.033 122.665 112.907 122.825 112.8C122.985 112.68 123.138 112.607 123.285 112.58C123.285 112.273 123.398 111.98 123.625 111.7C123.585 111.5 123.565 111.38 123.565 111.34C123.565 111.033 123.692 110.773 123.945 110.56C123.905 110.32 123.885 110.04 123.885 109.72C123.885 109.547 123.898 109.42 123.925 109.34C123.792 109.233 123.678 109.047 123.585 108.78C123.505 108.5 123.465 108.227 123.465 107.96C123.465 107.787 123.485 107.64 123.525 107.52C123.418 107.413 123.332 107.247 123.265 107.02C123.212 106.793 123.198 106.587 123.225 106.4C123.118 106.36 122.998 106.287 122.865 106.18C122.745 106.073 122.652 105.973 122.585 105.88C122.492 105.88 122.398 105.86 122.305 105.82C122.225 105.78 122.138 105.733 122.045 105.68C121.978 105.733 121.818 105.76 121.565 105.76C121.365 105.76 121.232 105.747 121.165 105.72C120.938 105.867 120.712 105.94 120.485 105.94C120.325 105.94 120.172 105.893 120.025 105.8C120.145 106 120.205 106.253 120.205 106.56C120.205 106.867 120.158 107.113 120.065 107.3C120.172 107.447 120.225 107.713 120.225 108.1C120.225 108.433 120.178 108.667 120.085 108.8C120.192 108.987 120.245 109.3 120.245 109.74C120.245 110.113 120.192 110.387 120.085 110.56C120.178 110.733 120.225 110.98 120.225 111.3C120.225 111.593 120.185 111.82 120.105 111.98C120.185 112.1 120.225 112.287 120.225 112.54C120.225 112.633 120.212 112.733 120.185 112.84C120.345 112.813 120.565 112.84 120.845 112.92C121.138 112.987 121.352 113.073 121.485 113.18C121.565 113.153 121.732 113.14 121.985 113.14C122.252 113.14 122.418 113.153 122.485 113.18ZM134.879 107.88C135.039 108.013 135.119 108.227 135.119 108.52C135.119 108.587 135.105 108.673 135.079 108.78C135.145 108.807 135.199 108.933 135.239 109.16C135.279 109.373 135.299 109.613 135.299 109.88C135.299 110.28 135.252 110.533 135.159 110.64C135.199 110.733 135.219 110.84 135.219 110.96C135.219 111.24 135.099 111.473 134.859 111.66C134.899 111.74 134.919 111.847 134.919 111.98C134.919 112.193 134.872 112.433 134.779 112.7C134.685 112.953 134.579 113.133 134.459 113.24C134.459 113.453 134.339 113.693 134.099 113.96C133.872 114.213 133.652 114.353 133.439 114.38C133.345 114.527 133.199 114.647 132.999 114.74C132.799 114.833 132.592 114.88 132.379 114.88C132.205 114.88 132.059 114.853 131.939 114.8C131.805 114.88 131.632 114.92 131.419 114.92C131.245 114.92 131.072 114.893 130.899 114.84C130.739 114.787 130.619 114.72 130.539 114.64C130.432 114.667 130.339 114.68 130.259 114.68C129.992 114.68 129.799 114.62 129.679 114.5C129.665 114.567 129.652 114.667 129.639 114.8C129.625 114.92 129.585 115.013 129.519 115.08C129.599 115.2 129.639 115.353 129.639 115.54C129.639 115.833 129.565 116.053 129.419 116.2C129.499 116.267 129.565 116.367 129.619 116.5C129.672 116.647 129.699 116.793 129.699 116.94C129.699 117.167 129.632 117.34 129.499 117.46C129.565 117.66 129.599 117.867 129.599 118.08C129.599 118.387 129.519 118.62 129.359 118.78C129.199 118.953 129.012 119.04 128.799 119.04C128.599 119.04 128.412 118.973 128.239 118.84C128.079 118.707 127.965 118.513 127.899 118.26C127.859 118.207 127.825 118.113 127.799 117.98C127.772 117.86 127.759 117.727 127.759 117.58C127.759 117.26 127.812 117.08 127.919 117.04C127.785 116.787 127.719 116.487 127.719 116.14C127.719 115.847 127.772 115.56 127.879 115.28C127.759 115.16 127.699 114.96 127.699 114.68C127.699 114.44 127.752 114.253 127.859 114.12C127.832 114.027 127.792 113.913 127.739 113.78C127.685 113.633 127.659 113.507 127.659 113.4C127.659 113.307 127.692 113.193 127.759 113.06C127.679 112.9 127.639 112.76 127.639 112.64C127.639 112.52 127.679 112.373 127.759 112.2C127.839 112.027 127.892 111.907 127.919 111.84C127.799 111.653 127.739 111.36 127.739 110.96C127.739 110.6 127.785 110.353 127.879 110.22C127.692 109.82 127.599 109.507 127.599 109.28C127.599 109.053 127.659 108.873 127.779 108.74C127.725 108.633 127.699 108.513 127.699 108.38C127.699 108.247 127.739 108.12 127.819 108C127.725 107.853 127.679 107.64 127.679 107.36C127.679 107 127.745 106.747 127.879 106.6C127.732 106.227 127.659 105.86 127.659 105.5C127.659 105.193 127.712 104.967 127.819 104.82C127.805 104.78 127.799 104.72 127.799 104.64C127.799 104.413 127.892 104.227 128.079 104.08C128.279 103.92 128.492 103.84 128.719 103.84C128.892 103.84 129.039 103.887 129.159 103.98C129.279 104.073 129.365 104.213 129.419 104.4L129.519 104.46C129.612 104.327 129.739 104.233 129.899 104.18C130.059 104.113 130.232 104.093 130.419 104.12C130.539 103.96 130.765 103.88 131.099 103.88C131.312 103.88 131.505 103.9 131.679 103.94C131.759 103.913 131.832 103.9 131.899 103.9C132.032 103.9 132.165 103.933 132.299 104C132.432 104.053 132.519 104.113 132.559 104.18C132.732 104.18 132.859 104.193 132.939 104.22C133.032 104.247 133.132 104.327 133.239 104.46C133.345 104.46 133.439 104.493 133.519 104.56C133.612 104.613 133.672 104.68 133.699 104.76C133.819 104.773 133.899 104.807 133.939 104.86C133.992 104.913 134.039 105 134.079 105.12C134.345 105.373 134.492 105.793 134.519 106.38C134.665 106.46 134.772 106.593 134.839 106.78C134.919 106.967 134.959 107.167 134.959 107.38C134.959 107.553 134.932 107.72 134.879 107.88ZM131.919 113.18C131.985 113.033 132.099 112.907 132.259 112.8C132.419 112.68 132.572 112.607 132.719 112.58C132.719 112.273 132.832 111.98 133.059 111.7C133.019 111.5 132.999 111.38 132.999 111.34C132.999 111.033 133.125 110.773 133.379 110.56C133.339 110.32 133.319 110.04 133.319 109.72C133.319 109.547 133.332 109.42 133.359 109.34C133.225 109.233 133.112 109.047 133.019 108.78C132.939 108.5 132.899 108.227 132.899 107.96C132.899 107.787 132.919 107.64 132.959 107.52C132.852 107.413 132.765 107.247 132.699 107.02C132.645 106.793 132.632 106.587 132.659 106.4C132.552 106.36 132.432 106.287 132.299 106.18C132.179 106.073 132.085 105.973 132.019 105.88C131.925 105.88 131.832 105.86 131.739 105.82C131.659 105.78 131.572 105.733 131.479 105.68C131.412 105.733 131.252 105.76 130.999 105.76C130.799 105.76 130.665 105.747 130.599 105.72C130.372 105.867 130.145 105.94 129.919 105.94C129.759 105.94 129.605 105.893 129.459 105.8C129.579 106 129.639 106.253 129.639 106.56C129.639 106.867 129.592 107.113 129.499 107.3C129.605 107.447 129.659 107.713 129.659 108.1C129.659 108.433 129.612 108.667 129.519 108.8C129.625 108.987 129.679 109.3 129.679 109.74C129.679 110.113 129.625 110.387 129.519 110.56C129.612 110.733 129.659 110.98 129.659 111.3C129.659 111.593 129.619 111.82 129.539 111.98C129.619 112.1 129.659 112.287 129.659 112.54C129.659 112.633 129.645 112.733 129.619 112.84C129.779 112.813 129.999 112.84 130.279 112.92C130.572 112.987 130.785 113.073 130.919 113.18C130.999 113.153 131.165 113.14 131.419 113.14C131.685 113.14 131.852 113.153 131.919 113.18Z" fill="black"/>
</svg>
