<svg width="23" height="20" viewBox="0 0 23 20" fill="none" xmlns="http://www.w3.org/2000/svg">
<path fill-rule="evenodd" clip-rule="evenodd" d="M3.37302 5.0646C3.65698 4.63325 4.07674 4.36186 4.59649 4.14616C4.82574 4.05102 5.08616 3.96219 5.37768 3.87346C5.50152 3.57985 5.67588 3.3038 5.92384 3.05584C6.4335 2.54618 7.06186 2.34743 7.71737 2.2593C7.92882 2.23087 8.15845 2.21228 8.40505 2.20011C8.67583 2.05767 8.9245 1.93723 9.15546 1.84327C9.71685 1.61489 10.2422 1.51304 10.7924 1.66046C11.1462 1.75527 11.4396 1.93423 11.7029 2.17716H11.7591C12.0677 2.10628 12.3475 2.05174 12.602 2.01949C13.1348 1.95194 13.6145 1.97329 14.0597 2.17717C14.8694 2.17749 15.5709 2.18272 16.1405 2.2593C16.796 2.34743 17.4244 2.54618 17.934 3.05584C18.4437 3.5655 18.6424 4.19385 18.7306 4.84937C18.8128 5.46102 18.8127 6.22482 18.8127 7.11129V7.11133L18.8127 7.17716V13.3438L18.8127 13.4097V13.4097C18.8127 14.2962 18.8128 15.06 18.7306 15.6716C18.6424 16.3271 18.4437 16.9555 17.934 17.4651C17.4244 17.9748 16.796 18.1736 16.1405 18.2617C15.5288 18.3439 14.765 18.3439 13.8785 18.3438L13.8127 18.3438H10.7571C10.3031 18.5967 9.90685 18.8033 9.5523 18.9476C8.99091 19.176 8.46556 19.2778 7.91536 19.1304C7.4046 18.9935 7.01979 18.6814 6.66966 18.2545C6.45541 18.0902 6.2833 17.889 6.13779 17.6561C6.06443 17.5978 5.99305 17.5344 5.92384 17.4651C5.45843 16.9997 5.25229 16.4353 5.15289 15.8417L2.26509 10.8827L2.24668 10.8511C1.78786 10.0633 1.41803 9.42822 1.19462 8.89016C0.962661 8.33152 0.858195 7.80917 1.00452 7.26306C1.15085 6.71695 1.50249 6.31681 1.98268 5.94899C2.34311 5.6729 2.81 5.39026 3.37302 5.0646ZM4.40924 5.62272L5.08715 5.23468C5.04509 5.77168 5.04512 6.40225 5.04516 7.1113V7.11133V7.11133L5.04516 7.17716V10.5544L4.55299 8.73338C4.30332 7.80958 4.13022 7.16501 4.06427 6.6615C4.01132 6.25727 4.03538 5.99522 4.1188 5.78915L4.40924 5.62272ZM7.03258 17.0452C7.03259 17.0452 7.03259 17.0452 7.03259 17.0452C7.46068 17.2577 8.04219 17.319 8.8847 17.3367C9.16553 17.3426 9.47537 17.3436 9.81819 17.3438C9.89229 17.3438 9.96794 17.3438 10.0452 17.3438H13.7176L13.7176 17.3438H13.8127C15.6983 17.3438 16.6411 17.3438 17.2269 16.758C17.5038 16.4812 17.6498 16.1245 17.7268 15.6262C17.8127 15.0703 17.8127 14.3382 17.8127 13.3438L17.8127 12.7413V7.17716C17.8127 5.29154 17.8127 4.34873 17.2269 3.76295C17.0088 3.54483 16.7412 3.40793 16.3938 3.32201C15.8083 3.17716 14.9962 3.17715 13.8127 3.17715H10.0452C8.15955 3.17715 7.21674 3.17715 6.63095 3.76294C6.39442 3.99947 6.2534 4.29421 6.16932 4.68572C6.04516 5.26382 6.04516 6.05291 6.04516 7.17715C6.04516 7.17716 6.04516 7.17716 6.04516 7.17716V13.3438C6.04516 13.3859 6.04516 13.4275 6.04517 13.4687C6.04522 13.7567 6.04558 14.022 6.04849 14.2668C6.06383 15.5547 6.14973 16.2768 6.63095 16.758C6.74879 16.8759 6.88108 16.97 7.03258 17.0452ZM3.03906 6.43256C2.87218 6.53979 2.72567 6.64073 2.59706 6.73924C2.20561 7.03909 2.04132 7.27173 1.97404 7.52284C1.90676 7.77394 1.93272 8.05756 2.12181 8.51296C2.31646 8.98175 2.6514 9.55902 3.13297 10.386L4.68324 13.0481L3.58651 8.99013L3.57697 8.95481C3.33908 8.07467 3.14734 7.36524 3.07164 6.78733C3.0558 6.66638 3.04457 6.5482 3.03906 6.43256Z" fill="black"/>
<path d="M9.56484 7.5H14.6081" stroke="black" stroke-linecap="round"/>
<path d="M9.56484 10.8333H14.6081" stroke="black" stroke-linecap="round"/>
<path d="M9.56484 14.1667H12.927" stroke="black" stroke-linecap="round"/>
</svg>
